<?xml version="1.0" encoding="utf-8"?>
<!-- Generator: Adobe Illustrator 23.1.0, SVG Export Plug-In . SVG Version: 6.00 Build 0)  -->
<svg version="1.1" id="Layer_1" xmlns="http://www.w3.org/2000/svg" xmlns:xlink="http://www.w3.org/1999/xlink" x="0px" y="0px"
	 viewBox="0 0 400 283.9" style="enable-background:new 0 0 400 283.9;" xml:space="preserve">
<style type="text/css">
	.st0{fill:#F15A24;}
	.st1{enable-background:new    ;}
</style>
<g>
	<g>
		<g>
			<g>
				<path class="st0" d="M275.5,281.2c-3.6,0-7.1-0.9-10.4-2.6L200,244.4l-65.1,34.2c-7.6,4-16.6,3.3-23.6-1.7
					c-6.9-5-10.3-13.4-8.9-21.9l12.4-72.5l-52.7-51.3c-6.1-6-8.3-14.8-5.7-22.9c2.6-8.2,9.6-14,18.1-15.2l72.8-10.6l32.6-66
					c3.8-7.7,11.5-12.5,20.1-12.5c0,0,0,0,0,0c8.6,0,16.3,4.8,20,12.5l32.6,66l72.8,10.6c8.5,1.2,15.4,7.1,18.1,15.2
					c2.6,8.2,0.5,16.9-5.7,22.9l-52.7,51.3l12.4,72.5c1.5,8.5-2,16.8-8.9,21.9C284.7,279.8,280.1,281.2,275.5,281.2z M200,213.3
					l67.6,35.6l-12.9-75.3l54.7-53.3l-75.6-11L200,40.8l-33.8,68.5l-75.6,11l54.7,53.3l-12.9,75.3L200,213.3z M190.9,30.9
					C190.9,30.9,190.9,30.9,190.9,30.9L190.9,30.9z"/>
			</g>
		</g>
		<path class="st0" d="M61.2,161.6l31.2,30.4l-4.7,27.6c-22.6,4.5-44.9,10.6-66.8,18.1c2.6-11.9,5.7-23.8,9.1-35.6
			c-9.4-8-19.2-15.7-29.3-23.3C20.5,172.1,40.8,166.3,61.2,161.6z"/>
		<path class="st0" d="M338.8,161.6l-31.2,30.4l4.7,27.6c22.6,4.5,44.9,10.6,66.8,18.1c-2.6-11.9-5.7-23.8-9.1-35.6
			c9.4-8,19.2-15.7,29.3-23.3C379.5,172.1,359.2,166.3,338.8,161.6z"/>
	</g>
</g>
<g class="st1">
	<path class="st0" d="M177.7,135.7v-19.1h33.3v87.7h-21.4v-68.6H177.7z"/>
</g>
</svg>
