<?xml version="1.0" encoding="iso-8859-1"?>
<!-- Generator: Adobe Illustrator 23.1.0, SVG Export Plug-In . SVG Version: 6.00 Build 0)  -->
<svg version="1.1" id="Layer_1" xmlns="http://www.w3.org/2000/svg" xmlns:xlink="http://www.w3.org/1999/xlink" x="0px" y="0px"
	 viewBox="0 0 400 400" style="enable-background:new 0 0 400 400;" xml:space="preserve">
<g>
	<g>
		<g>
			<path style="fill:#F15A24;" d="M199.997,398.351l-89.416-44.147c-42.553-21.008-68.988-63.539-68.988-110.998V83.312h316.812
				v159.894c0,47.454-26.435,89.99-68.988,110.998L199.997,398.351z M73.543,115.26v127.951c0,35.212,19.609,66.765,51.184,82.352
				l75.271,37.164l75.277-37.164c31.574-15.592,51.184-47.145,51.184-82.352V115.26H73.543z"/>
		</g>
		<g>
			<polygon style="fill:#F15A24;" points="64.792,1.649 73.326,18.938 92.409,21.714 78.601,35.175 81.859,54.183 64.792,45.21 
				47.72,54.183 50.984,35.175 37.17,21.714 56.254,18.938 			"/>
		</g>
		<g>
			<polygon style="fill:#F15A24;" points="132.398,1.649 140.931,18.938 160.014,21.714 146.206,35.175 149.464,54.183 
				132.398,45.21 115.326,54.183 118.584,35.175 104.775,21.714 123.859,18.938 			"/>
		</g>
		<g>
			<polygon style="fill:#F15A24;" points="200.003,1.649 208.536,18.938 227.619,21.714 213.811,35.175 217.069,54.183 
				200.003,45.21 182.931,54.183 186.189,35.175 172.381,21.714 191.464,18.938 			"/>
		</g>
		<g>
			<polygon style="fill:#F15A24;" points="267.608,1.649 276.141,18.938 295.225,21.714 281.416,35.175 284.675,54.183 
				267.608,45.21 250.536,54.183 253.794,35.175 239.986,21.714 259.069,18.938 			"/>
		</g>
		<g>
			<polygon style="fill:#F15A24;" points="335.208,1.649 343.746,18.938 362.83,21.714 349.022,35.175 352.28,54.183 335.208,45.21 
				318.141,54.183 321.399,35.175 307.591,21.714 326.674,18.938 			"/>
		</g>
	</g>
	<g>
		<g>
			<path style="fill:#F15A24;" d="M262.42,258.066c0,27.741-20.357,51.905-65.106,51.905c-21.702,0-44.521-6.04-59.739-16.779
				l14.318-27.741c11.857,8.945,28.191,14.096,44.521,14.096c18.124,0,29.314-7.612,29.314-20.357
				c0-12.312-8.056-20.357-36.47-20.357h-40.048l8.051-88.152h95.536v29.086h-65.328l-2.461,29.758h12.751
				C244.079,209.512,262.42,230.314,262.42,258.066z"/>
		</g>
	</g>
</g>
</svg>
