<?xml version="1.0" encoding="iso-8859-1"?>
<!-- Generator: Adobe Illustrator 23.1.0, SVG Export Plug-In . SVG Version: 6.00 Build 0)  -->
<svg version="1.1" id="Layer_1" xmlns="http://www.w3.org/2000/svg" xmlns:xlink="http://www.w3.org/1999/xlink" x="0px" y="0px"
	 viewBox="0 0 400 400" style="enable-background:new 0 0 400 400;" xml:space="preserve">
<g id="Objects">
	<g>
		<g>
			<g>
				<path style="fill:#F15A24;" d="M249.089,140.477c10.969,0,19.861-8.892,19.861-19.861v-9.931
					c0-10.969-8.892-19.861-19.861-19.861c-10.969,0-19.861,8.892-19.861,19.861v9.931
					C229.227,131.585,238.12,140.477,249.089,140.477z"/>
				<path style="fill:#F15A24;" d="M285.22,165.885v39.514c0,2.558-1.038,4.875-2.714,6.551c-1.676,1.678-3.993,2.714-6.551,2.714
					c-2.712,0-5.152-1.165-6.846-3.022v48c0,2.535-0.941,4.85-2.495,6.612c-5.717,0.861-11.57,1.308-17.525,1.308
					s-11.808-0.448-17.525-1.308c-1.553-1.762-2.495-4.077-2.495-6.612v-48c-0.848,0.929-1.88,1.684-3.041,2.207
					c-1.161,0.523-2.45,0.815-3.805,0.815c-5.116,0-9.265-4.147-9.265-9.265v-39.514c0-5.118,2.075-9.748,5.428-13.102
					c3.351-3.354,7.986-5.428,13.102-5.428h35.203C276.924,147.355,285.22,155.651,285.22,165.885z"/>
			</g>
			<path style="fill:#F15A24;" d="M190.125,124.167c10.969,0,19.861-8.892,19.861-19.861v-9.931
				c0-10.969-8.892-19.861-19.861-19.861s-19.861,8.892-19.861,19.861v9.931C170.264,115.275,179.156,124.167,190.125,124.167z"/>
			<path style="fill:#F15A24;" d="M208.101,165.885v39.514c0,2.676,0.747,5.179,2.043,7.311v30.623c0,2.765-1.121,5.266-2.931,7.078
				c-1.811,1.811-4.314,2.931-7.078,2.931h-6.903c-8.387-4.582-16.149-10.164-23.126-16.59v-41.42
				c-0.848,0.929-1.88,1.684-3.041,2.207c-1.161,0.523-2.448,0.815-3.805,0.815c-5.118,0-9.265-4.147-9.265-9.265v-39.514
				c0-5.116,2.075-9.748,5.428-13.104c3.354-3.353,7.986-5.426,13.102-5.426h35.203c8.054,0,14.906,5.137,17.462,12.315
				C215.342,146.119,208.101,155.172,208.101,165.885z"/>
			<path style="fill:#F15A24;" d="M308.052,124.167c-10.969,0-19.861-8.892-19.861-19.861v-9.931
				c0-10.969,8.892-19.861,19.861-19.861s19.861,8.892,19.861,19.861v9.931C327.914,115.275,319.022,124.167,308.052,124.167z"/>
			<path style="fill:#F15A24;" d="M344.184,149.576v39.514c0,5.118-4.147,9.265-9.265,9.265c-1.357,0-2.645-0.291-3.805-0.815
				s-2.193-1.279-3.041-2.207v41.42c-6.977,6.426-14.739,12.009-23.126,16.59h-6.903c-2.765,0-5.268-1.121-7.078-2.931
				c-1.811-1.813-2.931-4.314-2.931-7.078V212.71c1.296-2.132,2.043-4.635,2.043-7.311v-39.514c0-10.713-7.241-19.767-17.086-22.525
				c2.556-7.178,9.408-12.315,17.462-12.315h35.203c5.116,0,9.748,2.072,13.102,5.426
				C342.109,139.827,344.184,144.46,344.184,149.576z"/>
		</g>
		<path style="fill:#F15A24;" d="M381.176,204.539c6.925-17.078,10.437-35.121,10.437-53.628c0-18.507-3.511-36.55-10.437-53.628
			c-7.172-17.685-17.705-33.549-31.308-47.152c-13.603-13.602-29.467-24.136-47.152-31.308
			c-17.078-6.925-35.121-10.437-53.628-10.437c-18.507,0-36.55,3.511-53.628,10.437c-17.685,7.172-33.549,17.705-47.152,31.308
			s-24.136,29.467-31.307,47.152c-6.926,17.078-10.437,35.121-10.437,53.628c0,18.507,3.511,36.55,10.437,53.628
			c4.675,11.528,10.78,22.282,18.231,32.141l-14.43,14.43l28.088,28.088l14.43-14.43c9.859,7.451,20.613,13.556,32.141,18.231
			c17.078,6.925,35.121,10.437,53.628,10.437c18.507,0,36.55-3.511,53.628-10.437c17.685-7.172,33.549-17.705,47.152-31.308
			C363.471,238.089,374.004,222.224,381.176,204.539z M296.372,267.353c-15.053,6.104-30.961,9.199-47.283,9.199
			c-16.322,0-32.23-3.095-47.283-9.199c-15.58-6.318-29.562-15.604-41.558-27.6c-11.996-11.996-21.282-25.978-27.6-41.558
			c-6.104-15.053-9.199-30.961-9.199-47.283c0-16.322,3.095-32.23,9.199-47.283c6.318-15.58,15.604-29.562,27.6-41.558
			c11.996-11.996,25.978-21.282,41.558-27.6c15.053-6.104,30.961-9.199,47.283-9.199c16.322,0,32.23,3.095,47.283,9.199
			c15.58,6.318,29.562,15.604,41.558,27.6c11.996,11.996,21.282,25.978,27.6,41.558c6.104,15.053,9.199,30.961,9.199,47.283
			c0,16.322-3.095,32.23-9.199,47.283c-6.318,15.58-15.604,29.562-27.6,41.558C325.934,251.749,311.951,261.035,296.372,267.353z"/>
		<path style="fill:#F15A24;" d="M16.611,383.389L16.611,383.389c-10.965-10.965-10.965-28.743,0-39.708l87.67-87.67l39.708,39.708
			l-87.67,87.67C45.354,394.354,27.576,394.354,16.611,383.389z"/>
	</g>
</g>
</svg>
