<?xml version="1.0" encoding="utf-8"?>
<!-- Generator: Adobe Illustrator 23.1.0, SVG Export Plug-In . SVG Version: 6.00 Build 0)  -->
<svg version="1.1" id="Layer_1" xmlns="http://www.w3.org/2000/svg" xmlns:xlink="http://www.w3.org/1999/xlink" x="0px" y="0px"
	 viewBox="0 0 288 288" style="enable-background:new 0 0 288 288;" xml:space="preserve">
<style type="text/css">
	.st0{opacity:0.41;}
	.st1{display:none;}
	.st2{display:inline;fill:#FFFFFF;}
	.st3{display:none;fill:#FFFFFF;}
	.st4{display:inline;}
	.st5{display:inline;clip-path:url(#SVGID_2_);fill:#FFFFFF;}
	.st6{fill:#FFFFFF;}
	.st7{clip-path:url(#SVGID_4_);fill:#FFFFFF;}
	.st8{clip-path:url(#SVGID_6_);fill:#FFFFFF;}
	.st9{clip-path:url(#SVGID_8_);fill:#FFFFFF;}
	.st10{clip-path:url(#SVGID_10_);fill:#FFFFFF;}
	.st11{clip-path:url(#SVGID_12_);fill:#FFFFFF;}
	.st12{clip-path:url(#SVGID_14_);fill:#FFFFFF;}
	.st13{clip-path:url(#SVGID_16_);fill:#FFFFFF;}
	.st14{clip-path:url(#SVGID_18_);fill:#FFFFFF;}
	.st15{clip-path:url(#SVGID_20_);fill:#FFFFFF;}
	.st16{clip-path:url(#SVGID_22_);fill:#FFFFFF;}
	.st17{clip-path:url(#SVGID_24_);fill:#FFFFFF;}
	.st18{clip-path:url(#SVGID_26_);fill:#FFFFFF;}
	.st19{clip-path:url(#SVGID_28_);fill:#FFFFFF;}
	.st20{clip-path:url(#SVGID_30_);fill:#FFFFFF;}
	.st21{clip-path:url(#SVGID_32_);fill:#FFFFFF;}
	.st22{clip-path:url(#SVGID_34_);fill:#FFFFFF;}
</style>
<g class="st0">
	<g class="st1">
		
			<rect x="-50.3" y="-40.2" transform="matrix(0.5056 -0.8627 0.8627 0.5056 -57.2246 199.6551)" class="st2" width="391.7" height="379.9"/>
	</g>
	<g class="st1">
		
			<rect x="-46.1" y="-35" transform="matrix(0.5056 -0.8627 0.8627 0.5056 -57.1135 199.597)" class="st2" width="383.4" height="369.3"/>
	</g>
	<path class="st3" d="M115.8,38.7c-10.7,18.2-12.9,40.3-6.1,60.8l0.1,0.3l0.1,0.2c0.3,0.8,0.5,1.6,0.8,2.3c0.2,0.7,0.5,1.3,0.7,1.9
		l4.9,13.1l2.6,6.9l2.1,5.7l12.8,34.5l5.7,15.4l0.8,2.1l5,13.5l0.2,0.7l0.2,0.4c0.2,0.6,0.5,1.2,0.7,1.9l0.1,0.2l0.1,0.2
		c3.6,10.9,2.5,22.7-3.2,32.4c-11.2,19.1-36.5,25.1-56.5,13.4c-20-11.7-27.1-36.7-15.9-55.8c5.7-9.7,15.5-16.5,26.8-18.6l0.2,0
		c0.8-0.1,1.4-0.2,1.9-0.3l0.4,0l12.8-2l7.8-1.2l6.1-1l-3.5-9.1l-2.1-5.4l-2.1-5.4l-2.1-5.4l-3.5-9.1l-0.3,0l-19.5,3
		c-1.2,0.1-2.5,0.3-3.9,0.6l-0.4,0.1c-21.4,4-39.9,16.8-50.6,35.1c-21,35.9-7.6,83.1,30,105.1c37.6,22,85.3,10.7,106.4-25.2
		c10.7-18.3,12.9-40.7,5.9-61.4l0-0.1c-0.4-1.1-0.8-2.3-1.3-3.5l-0.3-1.1l-0.2-0.3l-25.8-69.5l-1-2.6l-6.2-16.8l0-0.1l-0.5-1.4
		l-0.7-1.8c-0.1-0.2-0.1-0.4-0.2-0.6l0-0.1l-0.2-0.6c-3.7-10.9-2.5-22.8,3.2-32.5c11.2-19.1,36.5-25.1,56.5-13.4
		c20,11.7,27.1,36.7,15.9,55.8c-5.7,9.7-15.5,16.5-26.8,18.6l-0.6,0.1l-0.1,0c-0.6,0.1-1.1,0.2-1.6,0.2l-0.2,0l-14.4,2.2l3.4,9.1
		l2,5.5l2,5.4l2,5.5l3.4,9.1l7.7-1.2c1.5-0.2,3-0.4,4.5-0.7l0.4-0.1c21.2-4.1,39.5-16.9,50.2-35.1c21.1-35.9,7.6-83.1-30-105.1
		C209.2,5.9,195,2.3,181,2.3C154.8,2.3,129.6,15.2,115.8,38.7L115.8,38.7z"/>
	<g class="st1">
		<defs>
			<path id="SVGID_1_" d="M129.3,46.6c-8.6,14.7-10.3,32.6-4.8,49.1l0,0.1c0.2,0.6,0.4,1.2,0.7,1.8c0.2,0.5,0.4,1,0.6,1.6l6.8,18.4
				l0.3,0.9l7.1,19l1.7,4.5l2,5.5l2.6,7l2.5,6.8l5.2,13.9l5.1,13.7l0.8,2.1l0.1,0.4c0.4,0.9,0.7,1.8,1.1,3l0,0.1
				c5.1,15,3.5,31.3-4.3,44.7c-15.3,26.2-50.1,34.4-77.5,18.3c-27.4-16-37.2-50.4-21.9-76.6c7.8-13.3,21.3-22.7,36.8-25.6l0.2,0
				c1.1-0.2,2.1-0.4,3.1-0.5l11.6-1.8l8.5-1.3l3.7-0.6l-2.1-5.4l-2.8,0.4l-9.3,1.4L96.8,149l-0.1,0c-1,0.1-2.2,0.3-3.3,0.5l-0.2,0
				c-17.2,3.2-32,13.5-40.6,28.2c-16.9,28.8-6.1,66.7,24.1,84.4c30.2,17.7,68.5,8.6,85.4-20.2c8.6-14.7,10.4-32.6,4.7-49.3l0-0.1
				c-0.4-1.2-0.8-2.2-1.2-3.2l-0.4-1.2l-5.4-14.6l-4.8-12.9l-2.9-7.8l-2.3-6.3l-2-5.5l-1.6-4.2l-1.8-4.7l-5.4-14.5l-0.7-1.8
				l-6.8-18.3l0,0l-0.1-0.2c-0.2-0.5-0.4-1-0.6-1.4c-0.2-0.6-0.4-1.1-0.6-1.7l0-0.1c-5-15-3.5-31.3,4.3-44.6
				c15.3-26.2,50.1-34.4,77.5-18.3c27.4,16,37.2,50.4,21.9,76.6c-7.8,13.3-21.2,22.6-36.8,25.6l-0.2,0c-1.1,0.2-2.2,0.4-3.2,0.5
				l-12.2,1.9l2.2,5.4l10.7-1.7l0.3,0c1.2-0.1,2.3-0.3,3.6-0.6l0.2,0c17.1-3.2,31.9-13.5,40.5-28.2c16.9-28.8,6.1-66.7-24.1-84.4
				c-10.4-6.1-21.9-9-33-9C160.5,17.4,140.3,27.8,129.3,46.6"/>
		</defs>
		<use xlink:href="#SVGID_1_"  style="display:inline;overflow:visible;fill:#FFFFFF;"/>
		<clipPath id="SVGID_2_" class="st4">
			<use xlink:href="#SVGID_1_"  style="overflow:visible;"/>
		</clipPath>
		
			<rect x="-24.2" y="-14.4" transform="matrix(0.5056 -0.8627 0.8627 0.5056 -55.2514 198.5244)" class="st5" width="339.6" height="323.7"/>
	</g>
	<path class="st6" d="M222.4,13.2c-14.6-8.6-30.5-12.7-46-12.7c-27.3,0-53,12.7-67.3,36.1c-0.3,0.4-0.5,0.8-0.8,1.2
		C97.3,56.7,95.4,80,103,101.7l0.2,0.6c0.3,0.8,0.6,1.6,0.9,2.4c0.3,0.7,0.5,1.3,0.8,2l7,17.8l-19,2.6c-1.2,0.1-2.5,0.3-4,0.5
		l-0.5,0.1c-23,3.8-42.6,17-53.8,36.1c-0.2,0.4-0.5,0.8-0.7,1.2c-20.9,37.4-5.5,86.6,34.9,110.2c40.4,23.7,90.9,13.2,113.3-23.4
		c0.3-0.4,0.5-0.8,0.7-1.2C194,231.6,195.9,208,188,186l-0.1-0.2c-0.4-1-0.8-2.1-1.3-3.3l-0.6-1.9l-0.4-0.5l-6.3-16l-18.2-46.2
		l-1.9-4.8l-1-2.6L152,94.7l0-0.2l-0.8-2.1l-0.7-1.7l-0.1-0.3l-0.3-0.7c-3.2-9-2.4-18.6,2.2-26.4c0.2-0.4,0.5-0.8,0.8-1.2
		c0.2-0.5,0.5-0.9,0.7-1.3c9.4-16,30.6-21,47.3-11.2c16.7,9.8,22.7,30.8,13.3,46.7c-0.3,0.4-0.5,0.8-0.8,1.3
		c-0.2,0.4-0.5,0.8-0.7,1.3c-4.6,7.8-12.6,13.2-22,14.8l-0.6,0.1c-0.4,0.1-0.8,0.1-1.1,0.1l-0.3,0l-14.2,1.9l1.9,5.2l3.4,9.1l12.6-2
		l0.1,0c0.9-0.1,1.8-0.3,2.7-0.4l0.1,0l0.1,0c14-2.6,26-11,33-23c13.8-23.5,5-54.4-19.6-68.8c-24.6-14.4-55.8-7-69.6,16.5
		c-7,12-8.4,26.6-3.9,40l0,0.1l0,0.1c0.1,0.4,0.3,0.9,0.5,1.3c0.2,0.4,0.3,0.9,0.5,1.3l0.2,0.6v0l6.7,18l1,2.7l16.1,43.2l4.4,11.8
		l5.8,15.7c0,0,0,0,0,0.1c0.4,1,0.8,2.2,1.3,3.4l0,0.1c6.1,18.2,4.2,37.8-5.2,53.8c-18.4,31.5-60.3,41.4-93.3,22.1
		c-33-19.3-44.8-60.7-26.3-92.2c9.4-16.1,25.6-27.3,44.4-30.8l0.3,0c1.3-0.2,2.5-0.4,3.5-0.5l9.7-1.5l12-1.9l2.1,5.4l-2.8,0.4
		l-9.3,1.4L96.8,149l-0.1,0c-1,0.1-2.1,0.3-3.3,0.5l-0.3,0c-17.2,3.2-32,13.5-40.6,28.2c-16.9,28.8-6.1,66.7,24.1,84.4
		c30.2,17.7,68.5,8.6,85.4-20.2c8.6-14.7,10.4-32.6,4.7-49.3l0-0.1c-0.4-1.2-0.8-2.2-1.2-3.2l-0.4-1.1l-5.4-14.6l-4.8-12.9l-2.9-7.8
		l-2.3-6.3l-2-5.5l-1.5-4.2l-1.8-4.7l-5.4-14.5l-0.7-1.8l-6.8-18.3l0,0l-0.1-0.2c-0.2-0.5-0.4-1-0.6-1.4c-0.2-0.6-0.4-1.1-0.6-1.7
		l0-0.1c-5.1-15-3.5-31.3,4.3-44.6c15.3-26.2,50.1-34.4,77.5-18.3c27.4,16,37.2,50.4,21.9,76.6c-7.8,13.3-21.2,22.6-36.8,25.6
		l-0.2,0c-1.1,0.2-2.2,0.4-3.2,0.5l-11.6,1.8l2,5.4l10.2-1.6l0.3,0c1.2-0.1,2.3-0.3,3.6-0.6l0.2,0c17.1-3.2,31.9-13.5,40.5-28.2
		c16.9-28.8,6.1-66.7-24.1-84.4c-10.5-6.1-21.9-9-33-9c-21.1,0-41.3,10.4-52.3,29.3c-8.6,14.7-10.3,32.6-4.8,49.1l0,0.1
		c0.2,0.6,0.4,1.2,0.7,1.8c0.2,0.5,0.4,1,0.6,1.5l6.8,18.4l0.3,0.9l7.1,19l1.7,4.5l2,5.5l2.6,7l2.5,6.8l5.2,13.9l5.1,13.7l0.8,2.1
		l0.1,0.3c0.4,0.9,0.7,1.8,1.1,3l0,0.1c5.1,15.1,3.5,31.3-4.3,44.7c-15.3,26.2-50.1,34.4-77.5,18.3c-27.4-16-37.2-50.4-21.9-76.6
		c7.8-13.3,21.3-22.7,36.8-25.6l0.2-0.1c1.1-0.2,2.1-0.4,3.1-0.5l11.6-1.8l8.5-1.3l3.7-0.6l2.1,5.4l-12.3,1.9l-12.6,2l-0.1,0
		c-0.7,0.1-1.6,0.2-2.6,0.4l-0.3,0.1c-14,2.6-26,11-33.1,23c-13.8,23.5-5,54.4,19.6,68.8c24.6,14.4,55.8,7,69.6-16.5
		c7-12,8.4-26.6,3.9-40.1l0-0.2c-0.3-1-0.7-1.8-1-2.6l-0.1-0.2l-0.2-0.5l-1.2-3.2l-4.7-12.5l-2.1-5.6l-3.5-9.4l-15.8-42.5l-6.8-18.3
		c-0.2-0.6-0.5-1.1-0.7-1.7c-0.2-0.6-0.5-1.3-0.7-2l-0.1-0.2c-6-18-4.1-37.5,5.3-53.5c18.5-31.5,60.3-41.4,93.3-22.1
		c33,19.3,44.8,60.7,26.3,92.2c-9.4,16-25.4,27.2-44.1,30.7l-0.3,0.1c-1.4,0.3-2.7,0.5-3.9,0.6l-0.3,0l-9.3,1.5h0l3.4,9.1l2.5,6.6
		l6.2-0.9c1.6-0.2,3.2-0.4,4.8-0.6l0.5-0.1c22.7-3.9,42.1-17.1,53.3-36c0.2-0.4,0.5-0.8,0.7-1.2C278.3,86,262.8,36.9,222.4,13.2z
		 M130.1,170.7l3.8,9.8l6,15.2l0.3,0.8l0.2,0.5c0.2,0.5,0.4,0.9,0.5,1.4l0.2,0.4l0.1,0.2c3.1,8.9,2.3,18.4-2.3,26.1
		c-0.3,0.4-0.5,0.8-0.8,1.2c-0.2,0.5-0.5,0.9-0.7,1.3c-6.1,10.4-17.3,16.2-29,16.2c-6.2,0-12.5-1.6-18.3-5
		C73.5,229,67.5,208,76.9,192c0.3-0.4,0.5-0.9,0.8-1.3c0.2-0.4,0.5-0.8,0.7-1.3c4.6-7.8,12.6-13.2,22-14.8l0.3,0
		c0.7-0.1,1.1-0.2,1.3-0.2l0.7-0.1l12.8-1.7l6.8-0.9L130.1,170.7z"/>
	<path class="st6" d="M238.8,110.8c-8.6,14.7-23.3,24.9-40.5,28.2l-0.2,0c-1.3,0.2-2.4,0.4-3.6,0.6l-0.3,0l-10.2,1.6l-2-5.4
		l11.6-1.8c1-0.1,2.1-0.3,3.2-0.5l0.2,0c15.6-2.9,29-12.3,36.8-25.6c15.3-26.2,5.5-60.5-21.9-76.6c-27.4-16.1-62.2-7.8-77.5,18.3
		c-7.8,13.3-9.4,29.6-4.3,44.6l0,0.1c0.2,0.5,0.4,1.1,0.6,1.7c0.2,0.5,0.4,1,0.6,1.4l0.1,0.2l0,0l6.8,18.3l0.7,1.8l5.4,14.5l1.8,4.7
		l1.5,4.2l2,5.5l2.3,6.3l2.9,7.8l4.8,12.9l5.4,14.6l0.4,1.1c0.4,1,0.8,2,1.2,3.2l0,0.1c5.6,16.6,3.9,34.6-4.7,49.3
		c-16.9,28.8-55.2,37.9-85.4,20.2c-30.2-17.7-41-55.5-24.1-84.4c8.6-14.7,23.4-25,40.6-28.2l0.3,0c1.2-0.2,2.3-0.4,3.3-0.5l0.1,0
		l10.4-1.6l9.3-1.4l2.8-0.4l2.1,5.4l-3.7,0.6l-8.5,1.3l-11.6,1.8c-0.9,0.1-1.9,0.3-3.1,0.5l-0.2,0.1c-15.6,2.9-29,12.2-36.8,25.6
		c-15.3,26.2-5.5,60.5,21.9,76.6c27.4,16.1,62.2,7.8,77.5-18.3c7.8-13.4,9.4-29.6,4.3-44.7l0-0.1c-0.4-1.1-0.8-2.1-1.1-3l-0.1-0.3
		l-0.8-2.1l-5.1-13.7l-5.2-13.9l-2.5-6.8l-2.6-7l-2-5.5l-1.7-4.5l-7.1-19l-0.3-0.9l-6.8-18.4c-0.2-0.5-0.4-1-0.6-1.5
		c-0.2-0.6-0.5-1.2-0.7-1.8l0-0.1c-5.6-16.5-3.8-34.4,4.8-49.1c11-18.9,31.2-29.2,52.3-29.2c11.2,0,22.6,2.9,33,9
		C244.8,44.1,255.7,81.9,238.8,110.8z"/>
	<path class="st6" d="M238.8,110.8c-8.6,14.7-23.3,24.9-40.5,28.2l-0.2,0c-1.3,0.2-2.4,0.4-3.6,0.6l-0.3,0l-10.2,1.6l-2-5.4
		l11.6-1.8c1-0.1,2.1-0.3,3.2-0.5l0.2,0c15.6-2.9,29-12.3,36.8-25.6c15.3-26.2,5.5-60.5-21.9-76.6c-27.4-16.1-62.2-7.8-77.5,18.3
		c-7.8,13.3-9.4,29.6-4.3,44.6l0,0.1c0.2,0.5,0.4,1.1,0.6,1.7c0.2,0.5,0.4,1,0.6,1.4l0.1,0.2l0,0l6.8,18.3l0.7,1.8l5.4,14.5l1.8,4.7
		l1.5,4.2l2,5.5l2.3,6.3l2.9,7.8l4.8,12.9l5.4,14.6l0.4,1.1c0.4,1,0.8,2,1.2,3.2l0,0.1c5.6,16.6,3.9,34.6-4.7,49.3
		c-16.9,28.8-55.2,37.9-85.4,20.2c-30.2-17.7-41-55.5-24.1-84.4c8.6-14.7,23.4-25,40.6-28.2l0.3,0c1.2-0.2,2.3-0.4,3.3-0.5l0.1,0
		l10.4-1.6l9.3-1.4l2.8-0.4l2.1,5.4l-3.7,0.6l-8.5,1.3l-11.6,1.8c-0.9,0.1-1.9,0.3-3.1,0.5l-0.2,0.1c-15.6,2.9-29,12.2-36.8,25.6
		c-15.3,26.2-5.5,60.5,21.9,76.6c27.4,16.1,62.2,7.8,77.5-18.3c7.8-13.4,9.4-29.6,4.3-44.7l0-0.1c-0.4-1.1-0.8-2.1-1.1-3l-0.1-0.3
		l-0.8-2.1l-5.1-13.7l-5.2-13.9l-2.5-6.8l-2.6-7l-2-5.5l-1.7-4.5l-7.1-19l-0.3-0.9l-6.8-18.4c-0.2-0.5-0.4-1-0.6-1.5
		c-0.2-0.6-0.5-1.2-0.7-1.8l0-0.1c-5.6-16.5-3.8-34.4,4.8-49.1c11-18.9,31.2-29.2,52.3-29.2c11.2,0,22.6,2.9,33,9
		C244.8,44.1,255.7,81.9,238.8,110.8z"/>
	<g class="st1">
		<polygon class="st2" points="130.1,170.7 122.1,171.8 120.9,166.4 118.9,157.1 115.3,140.3 113.3,131 111.9,124.5 		"/>
	</g>
	<g>
		<defs>
			<path id="SVGID_3_" d="M70.4,108.4c-1.6,3.7-4.3,10.1-5.4,14c-0.5,1.5,0.1,3.1,1.5,3.9c1.6,0.9,3.7,0.4,4.6-1.2l0.2-0.4l0.1-0.4
				c1-3.6,3.5-9.6,5-13.2c0.7-1.7,0-3.7-1.7-4.4c-0.4-0.2-0.9-0.3-1.3-0.3C72.1,106.4,70.9,107.1,70.4,108.4"/>
		</defs>
		<use xlink:href="#SVGID_3_"  style="overflow:visible;fill:#FFFFFF;"/>
		<clipPath id="SVGID_4_">
			<use xlink:href="#SVGID_3_"  style="overflow:visible;"/>
		</clipPath>
		<rect x="64.5" y="106.4" class="st7" width="12.7" height="20.8"/>
	</g>
	<g>
		<defs>
			<path id="SVGID_5_" d="M87.2,84.5c-3.7,3.6-7,7.5-10,11.8c-1.1,1.5-0.7,3.6,0.8,4.7c0.1,0.1,0.2,0.1,0.2,0.1
				c1.5,0.9,3.4,0.5,4.5-1c2.7-3.9,5.8-7.5,9.2-10.8c1.3-1.3,1.4-3.4,0.1-4.8c-0.7-0.7-1.5-1-2.4-1C88.7,83.5,87.9,83.9,87.2,84.5"
				/>
		</defs>
		<use xlink:href="#SVGID_5_"  style="overflow:visible;fill:#FFFFFF;"/>
		<clipPath id="SVGID_6_">
			<use xlink:href="#SVGID_5_"  style="overflow:visible;"/>
		</clipPath>
		
			<rect x="72.5" y="80.7" transform="matrix(0.5056 -0.8627 0.8627 0.5056 -38.1424 118.9646)" class="st8" width="24.5" height="24.1"/>
	</g>
	<g>
		<defs>
			<path id="SVGID_7_" d="M61.7,95.1c-7.2,12.3-11.4,25.6-12.8,39c2.4-1.8,4.9-3.4,7.4-4.9c1.8-10.5,5.4-20.9,11.1-30.7
				c5.7-9.7,13-18,21.3-24.7c0.1-3,0.3-5.9,0.6-8.9C78.4,72.6,68.9,82.7,61.7,95.1"/>
		</defs>
		<use xlink:href="#SVGID_7_"  style="overflow:visible;fill:#FFFFFF;"/>
		<clipPath id="SVGID_8_">
			<use xlink:href="#SVGID_7_"  style="overflow:visible;"/>
		</clipPath>
		
			<rect x="29.1" y="64.5" transform="matrix(0.5056 -0.8627 0.8627 0.5056 -51.5997 108.83)" class="st9" width="80.2" height="69.9"/>
	</g>
	<g>
		<defs>
			<path id="SVGID_9_" d="M50.1,88.3c-10.8,18.4-15.6,38.7-15.1,58.6c2.1-2.5,4.4-4.8,6.8-7c0.7-16.5,5.3-33.1,14.2-48.3
				C64.8,76.5,77,64.4,91.1,55.7c0.7-3.2,1.7-6.3,2.8-9.3C76.2,55.7,60.9,69.8,50.1,88.3"/>
		</defs>
		<use xlink:href="#SVGID_9_"  style="overflow:visible;fill:#FFFFFF;"/>
		<clipPath id="SVGID_10_">
			<use xlink:href="#SVGID_9_"  style="overflow:visible;"/>
		</clipPath>
		
			<rect x="5.8" y="45.6" transform="matrix(0.5056 -0.8627 0.8627 0.5056 -51.6804 103.11)" class="st10" width="116.8" height="102.1"/>
	</g>
	<g>
		<defs>
			<path id="SVGID_11_" d="M38.5,81.5c-15.3,26.1-20,55.6-15.3,83.3c0.7-1.5,1.4-2.9,2.2-4.3c0.3-0.5,0.6-1,0.8-1.5
				c0.8-1.3,1.6-2.6,2.4-3.9c-2.2-23.7,2.7-48.2,15.6-70.3c12.9-22,32-38.3,53.7-47.9c0.7-1.4,1.4-2.7,2.2-4c0.3-0.5,0.6-1,0.9-1.5
				c0.8-1.4,1.7-2.7,2.7-4.1C77.2,36.9,53.8,55.3,38.5,81.5"/>
		</defs>
		<use xlink:href="#SVGID_11_"  style="overflow:visible;fill:#FFFFFF;"/>
		<clipPath id="SVGID_12_">
			<use xlink:href="#SVGID_11_"  style="overflow:visible;"/>
		</clipPath>
		
			<rect x="-19.7" y="24.6" transform="matrix(0.5056 -0.8627 0.8627 0.5056 -52.7048 100.2146)" class="st11" width="161.6" height="143"/>
	</g>
	<g>
		<defs>
			<path id="SVGID_13_" d="M26.8,74.6c-21.2,36.2-24,78.1-11.2,114.9c0.6-4.5,1.6-9,3-13.4c-8.1-32.1-4.1-67.3,14-98.1
				c18-30.8,46.8-51.5,78.8-60.1c3.1-3.3,6.6-6.4,10.2-9.2C83.3,15.6,48,38.5,26.8,74.6"/>
		</defs>
		<use xlink:href="#SVGID_13_"  style="overflow:visible;fill:#FFFFFF;"/>
		<clipPath id="SVGID_14_">
			<use xlink:href="#SVGID_13_"  style="overflow:visible;"/>
		</clipPath>
		
			<rect x="-45.8" y="2.2" transform="matrix(0.5056 -0.8627 0.8627 0.5056 -54.7629 102.7356)" class="st12" width="216" height="193.9"/>
	</g>
	<g>
		<defs>
			<path id="SVGID_15_" d="M91.9,103.5c-1.3,1.7-1,4.1,0.7,5.4c1.7,1.3,4.1,1,5.4-0.7c1.3-1.7,1-4.1-0.7-5.4
				c-0.7-0.5-1.5-0.8-2.3-0.8C93.8,102,92.6,102.5,91.9,103.5"/>
		</defs>
		<use xlink:href="#SVGID_15_"  style="overflow:visible;fill:#FFFFFF;"/>
		<clipPath id="SVGID_16_">
			<use xlink:href="#SVGID_15_"  style="overflow:visible;"/>
		</clipPath>
		
			<rect x="89.2" y="100.2" transform="matrix(0.5056 -0.8627 0.8627 0.5056 -44.5733 134.3064)" class="st13" width="11.5" height="11.6"/>
	</g>
	<g>
		<defs>
			<path id="SVGID_17_" d="M97.9,115.7c-1.3,1.7-1,4.1,0.7,5.4c1.7,1.3,4.1,1,5.4-0.7c1.3-1.7,1-4.1-0.7-5.4
				c-0.7-0.5-1.5-0.8-2.3-0.8C99.8,114.2,98.7,114.7,97.9,115.7"/>
		</defs>
		<use xlink:href="#SVGID_17_"  style="overflow:visible;fill:#FFFFFF;"/>
		<clipPath id="SVGID_18_">
			<use xlink:href="#SVGID_17_"  style="overflow:visible;"/>
		</clipPath>
		
			<rect x="95.2" y="112.4" transform="matrix(0.5056 -0.8627 0.8627 0.5056 -52.0975 145.5753)" class="st14" width="11.5" height="11.6"/>
	</g>
	<g>
		<defs>
			<path id="SVGID_19_" d="M83.1,118.8c-0.8,2,0.1,4.2,2.1,5c2,0.8,4.2-0.1,5-2.1c0.8-2-0.1-4.2-2.1-5c-0.5-0.2-1-0.3-1.5-0.3
				C85.2,116.4,83.7,117.3,83.1,118.8"/>
		</defs>
		<use xlink:href="#SVGID_19_"  style="overflow:visible;fill:#FFFFFF;"/>
		<clipPath id="SVGID_20_">
			<use xlink:href="#SVGID_19_"  style="overflow:visible;"/>
		</clipPath>
		
			<rect x="80.9" y="114.6" transform="matrix(0.5056 -0.8627 0.8627 0.5056 -61.0991 134.3517)" class="st15" width="11.5" height="11.7"/>
	</g>
	<g>
		<defs>
			<path id="SVGID_21_" d="M219.1,166.6c-1.7,5.6-4.1,11.2-7.2,16.5c-3.1,5.3-6.8,10.1-10.9,14.4c0.5,2.8,0.9,5.6,1.1,8.3
				c6-5.5,11.3-11.9,15.6-19.3c4.3-7.4,7.4-15.1,9.2-23C224.3,164.6,221.7,165.7,219.1,166.6"/>
		</defs>
		<use xlink:href="#SVGID_21_"  style="overflow:visible;fill:#FFFFFF;"/>
		<clipPath id="SVGID_22_">
			<use xlink:href="#SVGID_21_"  style="overflow:visible;"/>
		</clipPath>
		
			<rect x="189.1" y="162.7" transform="matrix(0.5056 -0.8627 0.8627 0.5056 -53.5186 275.8294)" class="st16" width="49.6" height="43.8"/>
	</g>
	<g>
		<defs>
			<path id="SVGID_23_" d="M234.9,159.3c-1.8,10.5-5.4,21-11.2,30.7c-5.7,9.8-13,18.1-21.3,24.7c0,3-0.2,5.9-0.6,8.9
				c11-7.7,20.5-17.9,27.8-30.2c7.2-12.3,11.4-25.6,12.8-39C239.9,156.2,237.5,157.8,234.9,159.3"/>
		</defs>
		<use xlink:href="#SVGID_23_"  style="overflow:visible;fill:#FFFFFF;"/>
		<clipPath id="SVGID_24_">
			<use xlink:href="#SVGID_23_"  style="overflow:visible;"/>
		</clipPath>
		
			<rect x="181.9" y="154.1" transform="matrix(0.5056 -0.8627 0.8627 0.5056 -53.3333 285.0245)" class="st17" width="80.2" height="70"/>
	</g>
	<g>
		<defs>
			<path id="SVGID_25_" d="M249.5,148.6c-0.7,16.5-5.3,33.1-14.2,48.3c-8.9,15.2-21.1,27.3-35.2,35.9c-0.7,3.2-1.7,6.3-2.8,9.3
				c17.6-9.3,33-23.4,43.8-41.9c10.8-18.4,15.6-38.7,15.1-58.6C254.2,144.1,251.9,146.4,249.5,148.6"/>
		</defs>
		<use xlink:href="#SVGID_25_"  style="overflow:visible;fill:#FFFFFF;"/>
		<clipPath id="SVGID_26_">
			<use xlink:href="#SVGID_25_"  style="overflow:visible;"/>
		</clipPath>
		
			<rect x="168.7" y="140.8" transform="matrix(0.5056 -0.8627 0.8627 0.5056 -53.2596 290.7554)" class="st18" width="116.7" height="102.1"/>
	</g>
	<g>
		<defs>
			<path id="SVGID_27_" d="M265.8,128c-0.3,0.5-0.5,1-0.8,1.5c-0.8,1.3-1.6,2.6-2.4,3.9c2.2,23.7-2.7,48.2-15.6,70.3
				c-12.9,22-31.9,38.3-53.7,47.9c-0.7,1.4-1.4,2.7-2.2,4c-0.3,0.5-0.6,1-0.9,1.5c-0.9,1.4-1.8,2.8-2.7,4.1
				c26.5-9.5,49.9-27.9,65.3-54.1c15.3-26.1,20-55.6,15.3-83.4C267.3,125.1,266.6,126.6,265.8,128"/>
		</defs>
		<use xlink:href="#SVGID_27_"  style="overflow:visible;fill:#FFFFFF;"/>
		<clipPath id="SVGID_28_">
			<use xlink:href="#SVGID_27_"  style="overflow:visible;"/>
		</clipPath>
		
			<rect x="149.3" y="120.9" transform="matrix(0.5056 -0.8627 0.8627 0.5056 -52.2341 293.6357)" class="st19" width="161.7" height="143"/>
	</g>
	<g>
		<defs>
			<path id="SVGID_29_" d="M272.5,112.4c8.1,32.1,4.1,67.3-14,98.1c-18,30.8-46.8,51.5-78.8,60.1c-3.2,3.3-6.6,6.4-10.2,9.2
				c38.4-6.8,73.6-29.7,94.8-65.9c21.2-36.2,24-78.1,11.2-114.9C274.9,103.5,273.9,108,272.5,112.4"/>
		</defs>
		<use xlink:href="#SVGID_29_"  style="overflow:visible;fill:#FFFFFF;"/>
		<clipPath id="SVGID_30_">
			<use xlink:href="#SVGID_29_"  style="overflow:visible;"/>
		</clipPath>
		
			<rect x="120.9" y="92.4" transform="matrix(0.5056 -0.8627 0.8627 0.5056 -50.1704 291.1291)" class="st20" width="216" height="193.9"/>
	</g>
	<g>
		<defs>
			<path id="SVGID_31_" d="M193.3,180.4c-1.3,1.7-1,4.1,0.7,5.4c1.7,1.3,4.1,1,5.4-0.7c1.3-1.7,1-4.1-0.7-5.4
				c-0.7-0.5-1.5-0.8-2.3-0.8C195.2,178.9,194,179.4,193.3,180.4"/>
		</defs>
		<use xlink:href="#SVGID_31_"  style="overflow:visible;fill:#FFFFFF;"/>
		<clipPath id="SVGID_32_">
			<use xlink:href="#SVGID_31_"  style="overflow:visible;"/>
		</clipPath>
		
			<rect x="190.6" y="177.1" transform="matrix(0.5056 -0.8627 0.8627 0.5056 -60.7908 259.8043)" class="st21" width="11.5" height="11.6"/>
	</g>
	<g>
		<defs>
			<path id="SVGID_33_" d="M201,166.8c-0.8,2,0.1,4.2,2.1,5c2,0.8,4.2-0.1,5-2.1c0.8-2-0.1-4.2-2.1-5c-0.5-0.2-1-0.3-1.5-0.3
				C203,164.4,201.6,165.3,201,166.8"/>
		</defs>
		<use xlink:href="#SVGID_33_"  style="overflow:visible;fill:#FFFFFF;"/>
		<clipPath id="SVGID_34_">
			<use xlink:href="#SVGID_33_"  style="overflow:visible;"/>
		</clipPath>
		
			<rect x="198.8" y="162.7" transform="matrix(0.5056 -0.8627 0.8627 0.5056 -44.2825 259.7697)" class="st22" width="11.5" height="11.7"/>
	</g>
</g>
</svg>
