<?xml version="1.0" encoding="iso-8859-1"?>
<!-- Generator: Adobe Illustrator 23.1.0, SVG Export Plug-In . SVG Version: 6.00 Build 0)  -->
<svg version="1.1" id="Layer_1" xmlns="http://www.w3.org/2000/svg" xmlns:xlink="http://www.w3.org/1999/xlink" x="0px" y="0px"
	 viewBox="0 0 888 288" style="enable-background:new 0 0 888 288;" xml:space="preserve">
<g>
	<g>
		<defs>
			<path id="SVGID_1_" d="M82.192,238.652c-16.704-9.784-22.691-30.736-13.33-46.699c0.25-0.432,0.509-0.866,0.789-1.278
				c0.22-0.424,0.451-0.847,0.691-1.25c4.584-7.823,12.59-13.214,21.961-14.771l0.279-0.049c0.74-0.125,1.124-0.154,1.259-0.173
				l0.644-0.067l12.783-1.73l6.824-0.932l7.977-1.086l3.854,9.774l5.968,15.166l0.307,0.807l0.24,0.519
				c0.221,0.509,0.384,0.923,0.548,1.395l0.155,0.422l0.066,0.173c3.075,8.852,2.249,18.348-2.268,26.065
				c-0.25,0.414-0.5,0.817-0.759,1.211c-0.231,0.452-0.471,0.884-0.73,1.317c-6.113,10.436-17.291,16.194-28.965,16.194
				C94.3,243.66,87.977,242.044,82.192,238.652 M101.164,36.563c-0.26,0.395-0.509,0.818-0.75,1.23
				c-11.091,18.934-13.081,42.211-5.469,63.884l0.211,0.644c0.298,0.827,0.605,1.644,0.923,2.412
				c0.25,0.673,0.509,1.317,0.788,1.952l7.006,17.76l-19.02,2.576c-1.211,0.125-2.509,0.308-4.008,0.548l-0.519,0.077
				c-22.951,3.844-42.538,17.012-53.744,36.128c-0.24,0.414-0.481,0.817-0.711,1.24c-20.933,37.367-5.488,86.508,34.897,110.18
				c40.395,23.673,90.824,13.138,113.188-23.393c0.26-0.394,0.5-0.807,0.74-1.221c11.206-19.126,13.11-42.691,5.209-64.662
				l-0.077-0.193c-0.375-1.027-0.788-2.095-1.277-3.316l-0.597-1.932l-0.394-0.519l-6.305-16.02l-18.203-46.162l-1.903-4.844
				l-1.028-2.556l-6.169-15.685l-0.03-0.183l-0.855-2.066l-0.702-1.701l-0.086-0.249l-0.26-0.703
				c-3.2-8.948-2.412-18.549,2.162-26.352c0.24-0.414,0.49-0.818,0.75-1.211c0.231-0.452,0.481-0.885,0.73-1.318
				c9.352-15.964,30.554-20.981,47.257-11.187c16.713,9.784,22.691,30.737,13.34,46.7c-0.259,0.433-0.519,0.855-0.798,1.278
				c-0.221,0.423-0.452,0.837-0.692,1.249c-4.565,7.804-12.562,13.187-22.009,14.772l-0.596,0.106
				c-0.394,0.058-0.75,0.106-1.086,0.144l-0.298,0.019l-14.224,1.932l1.941,5.2l3.373,9.082l2.028,5.449l2.028,5.439l2.019,5.46
				l3.382,9.082l2.451,6.592l6.218-0.855c1.615-0.163,3.181-0.374,4.805-0.654l0.509-0.096c22.72-3.94,42.106-17.069,53.226-36.022
				c0.24-0.413,0.481-0.827,0.702-1.24c20.933-37.366,5.488-86.518-34.897-110.18c-14.608-8.561-30.536-12.649-45.969-12.65
				C141.138,0.527,115.433,13.251,101.164,36.563"/>
		</defs>
		<clipPath id="SVGID_2_">
			<use xlink:href="#SVGID_1_"  style="overflow:visible;"/>
		</clipPath>
		
			<linearGradient id="SVGID_3_" gradientUnits="userSpaceOnUse" x1="-515.0353" y1="683.9957" x2="-514.0742" y2="683.9957" gradientTransform="matrix(-154.1174 -90.3255 -90.3255 154.1174 -17384.041 -151744.5313)">
			<stop  offset="0" style="stop-color:#872F22"/>
			<stop  offset="0.5056" style="stop-color:#F6651C"/>
			<stop  offset="1" style="stop-color:#FAB223"/>
		</linearGradient>
		<polygon style="clip-path:url(#SVGID_2_);fill:url(#SVGID_3_);" points="202.36,414.571 -125.208,222.589 72.751,-115.178 
			400.319,76.804 		"/>
	</g>
	<g>
		<defs>
			<path id="SVGID_4_" d="M107.796,38.706c-10.65,18.174-12.87,40.318-6.085,60.78l0.067,0.25l0.077,0.231
				c0.269,0.778,0.538,1.557,0.817,2.278c0.24,0.663,0.481,1.278,0.73,1.884l4.863,13.071l2.576,6.91l2.095,5.651l12.84,34.513
				l5.728,15.358l0.769,2.076l5.027,13.513l0.24,0.663l0.173,0.413c0.24,0.597,0.471,1.192,0.702,1.904l0.058,0.182l0.067,0.164
				c3.633,10.907,2.471,22.691-3.2,32.369c-11.168,19.068-36.493,25.065-56.445,13.369c-19.962-11.697-27.103-36.723-15.925-55.781
				c5.699-9.727,15.464-16.512,26.815-18.637l0.231-0.047c0.807-0.145,1.433-0.241,1.884-0.289l0.413-0.048l12.821-1.989l7.785-1.21
				l6.132-0.961l-3.546-9.055l-2.114-5.43l-2.134-5.44l-2.124-5.44l-3.546-9.053l-0.307,0.047l-19.472,3.027
				c-1.211,0.144-2.47,0.346-3.854,0.596l-0.394,0.067c-21.404,4.008-39.837,16.81-50.573,35.118
				c-21.038,35.907-7.583,83.048,30.005,105.077c37.579,22.028,85.288,10.735,106.326-25.17
				c10.735-18.319,12.888-40.684,5.892-61.396l-0.029-0.077c-0.384-1.134-0.807-2.286-1.287-3.507l-0.328-1.145l-0.221-0.298
				l-25.833-69.42l-1.001-2.642l-6.238-16.781l-0.01-0.126l-0.538-1.354l-0.682-1.769c-0.067-0.183-0.144-0.365-0.202-0.566
				l-0.019-0.068l-0.211-0.605c-3.671-10.928-2.528-22.758,3.162-32.465c11.178-19.059,36.493-25.057,56.455-13.36
				c19.952,11.697,27.093,36.714,15.925,55.782c-5.69,9.707-15.454,16.483-26.786,18.616l-0.567,0.116l-0.077,0.019
				c-0.605,0.095-1.124,0.173-1.615,0.239l-0.24,0.02l-14.368,2.239l3.373,9.082l2.028,5.449l2.028,5.439l2.019,5.46l3.382,9.082
				l7.698-1.201c1.49-0.183,2.979-0.414,4.546-0.702l0.404-0.087c21.221-4.095,39.501-16.858,50.15-35.032
				c21.048-35.907,7.583-83.049-29.996-105.078c-13.013-7.625-27.24-11.258-41.152-11.258
				C146.704,2.276,121.55,15.23,107.796,38.706"/>
		</defs>
		<clipPath id="SVGID_5_">
			<use xlink:href="#SVGID_4_"  style="overflow:visible;"/>
		</clipPath>
		
			<linearGradient id="SVGID_6_" gradientUnits="userSpaceOnUse" x1="-515.0397" y1="683.9947" x2="-514.0787" y2="683.9947" gradientTransform="matrix(-142.1081 -83.287 -83.287 142.1081 -16019.0313 -139908.5625)">
			<stop  offset="0" style="stop-color:#C44422"/>
			<stop  offset="1" style="stop-color:#F27B15"/>
		</linearGradient>
		<polygon style="clip-path:url(#SVGID_5_);fill:url(#SVGID_6_);" points="199.92,408.207 -118.565,221.548 75.201,-109.065 
			393.686,77.594 		"/>
	</g>
	<g>
		<path style="fill:#FFFFFF;" d="M158.905,244.73c-18.447,31.476-60.26,41.374-93.207,22.064
			c-32.947-19.309-44.744-60.626-26.296-92.103c9.405-16.047,25.57-27.269,44.328-30.782l0.288-0.047
			c1.318-0.243,2.459-0.416,3.504-0.539l9.642-1.499l11.969-1.865l4.255,10.876l2.118,5.432l-12.257,1.912l-12.636,1.96
			l-0.122,0.014c-0.735,0.078-1.58,0.209-2.606,0.396l-0.292,0.055c-13.977,2.61-26.017,10.979-33.043,22.966
			c-13.769,23.492-4.961,54.34,19.629,68.753c24.591,14.412,55.809,7.022,69.578-16.471c7.026-11.987,8.437-26.606,3.875-40.103
			l-0.058-0.153c-0.333-0.994-0.644-1.814-0.954-2.557l-0.069-0.17l-0.168-0.466l-1.173-3.15l-4.656-12.526l-2.081-5.594
			l-3.499-9.385l-15.784-42.423l-6.806-18.29c-0.236-0.56-0.452-1.119-0.658-1.693c-0.242-0.628-0.49-1.323-0.721-2.011l-0.063-0.22
			c-6.023-18.004-4.102-37.488,5.266-53.471c18.448-31.477,60.26-41.374,93.207-22.065c32.947,19.31,44.744,60.627,26.297,92.104
			c-9.353,15.959-25.401,27.153-44.045,30.721l-0.284,0.061c-1.437,0.27-2.727,0.465-3.918,0.608l-0.244,0.031l-9.271,1.446
			l-2.027-5.454l-2.023-5.442l-2.032-5.447l12.58-1.96l0.095-0.009c0.914-0.112,1.799-0.253,2.72-0.415l0.149-0.042l0.139-0.027
			c13.966-2.627,26.005-10.996,33.012-22.951c13.769-23.493,4.961-54.34-19.629-68.753c-24.591-14.412-55.808-7.022-69.577,16.47
			c-7.007,11.956-8.426,26.549-3.893,40.017l0.045,0.135l0.025,0.112c0.152,0.434,0.311,0.896,0.481,1.34
			c0.169,0.445,0.343,0.881,0.508,1.314l0.228,0.576l0.002,0.035l6.714,18.041l1.001,2.672l16.052,43.141l4.385,11.772l5.833,15.668
			c0.011,0.018,0.011,0.038,0.023,0.057c0.417,1.044,0.843,2.168,1.263,3.42l0.042,0.121
			C170.198,209.082,168.31,228.683,158.905,244.73"/>
	</g>
	<g>
		<defs>
			<path id="SVGID_7_" d="M121.26,46.597c-8.602,14.667-10.341,32.562-4.786,49.064l0.029,0.126
				c0.202,0.614,0.432,1.229,0.663,1.835c0.192,0.529,0.384,1.038,0.605,1.557l6.843,18.396l0.336,0.893l7.054,18.982l1.663,4.46
				l2.028,5.449l2.595,6.979l2.528,6.794l5.171,13.849l5.075,13.657l0.769,2.076l0.125,0.356c0.365,0.875,0.73,1.826,1.115,2.96
				l0.048,0.135c5.084,15.041,3.498,31.313-4.315,44.653c-15.329,26.152-50.073,34.378-77.455,18.328
				c-27.372-16.04-37.175-50.38-21.846-76.532c7.814-13.34,21.24-22.663,36.791-25.565l0.24-0.048
				c1.144-0.211,2.143-0.365,3.075-0.471l11.61-1.807l8.477-1.317l3.691-0.567l-2.134-5.44l-2.768,0.432l-9.294,1.442l-10.428,1.625
				l-0.135,0.018c-1.048,0.125-2.153,0.298-3.345,0.509l-0.25,0.048c-17.184,3.221-31.976,13.484-40.587,28.179
				c-16.886,28.814-6.084,66.643,24.075,84.317c30.159,17.675,68.44,8.622,85.326-20.202c8.621-14.695,10.351-32.61,4.738-49.237
				l-0.048-0.134c-0.404-1.183-0.798-2.231-1.201-3.221l-0.433-1.153l-5.43-14.599l-4.805-12.908l-2.883-7.746l-2.345-6.304
				l-2.028-5.459l-1.557-4.182l-1.749-4.7l-5.401-14.503l-0.663-1.787l-6.795-18.251l-0.01-0.03l-0.087-0.231
				c-0.192-0.481-0.384-0.961-0.567-1.442c-0.202-0.557-0.404-1.115-0.586-1.652l-0.029-0.116
				c-5.046-15.003-3.46-31.245,4.334-44.556c15.329-26.151,50.084-34.378,77.455-18.328c27.372,16.041,37.185,50.381,21.855,76.532
				c-7.804,13.302-21.202,22.625-36.752,25.557l-0.163,0.037c-1.144,0.212-2.201,0.375-3.22,0.5l-11.581,1.798l2.028,5.439
				l10.216-1.586l0.346-0.047c1.153-0.136,2.326-0.328,3.585-0.558l0.154-0.037c17.127-3.24,31.851-13.503,40.433-28.142
				c16.886-28.814,6.084-66.642-24.075-84.316c-10.442-6.124-21.86-9.04-33.025-9.04C152.481,17.364,132.299,27.76,121.26,46.597"/>
		</defs>
		<clipPath id="SVGID_8_">
			<use xlink:href="#SVGID_7_"  style="overflow:visible;"/>
		</clipPath>
		
			<linearGradient id="SVGID_9_" gradientUnits="userSpaceOnUse" x1="-515.0378" y1="683.9842" x2="-514.0767" y2="683.9842" gradientTransform="matrix(-149.9201 -87.8655 -87.8655 149.9201 -16910.9902 -147610.1875)">
			<stop  offset="0" style="stop-color:#C44422"/>
			<stop  offset="1" style="stop-color:#F27B15"/>
		</linearGradient>
		<polygon style="clip-path:url(#SVGID_8_);fill:url(#SVGID_9_);" points="191.304,375.609 -87.807,212.027 83.807,-80.788 
			362.918,82.795 		"/>
	</g>
	<g>
		<polygon style="fill:#BE3012;" points="122.068,170.613 114.09,171.705 112.914,166.285 110.903,156.984 107.289,140.251 
			105.278,130.949 103.877,124.447 		"/>
	</g>
	<g>
		<defs>
			<path id="SVGID_10_" d="M62.355,108.336c-1.639,3.736-4.296,10.053-5.363,13.957c-0.461,1.461,0.125,3.104,1.509,3.921
				c1.605,0.932,3.671,0.394,4.604-1.211l0.232-0.384l0.114-0.433c0.978-3.604,3.478-9.566,5.04-13.178
				c0.733-1.695-0.043-3.663-1.738-4.399c-0.434-0.188-0.887-0.279-1.333-0.278C64.132,106.332,62.904,107.079,62.355,108.336"/>
		</defs>
		<clipPath id="SVGID_11_">
			<use xlink:href="#SVGID_10_"  style="overflow:visible;"/>
		</clipPath>
		
			<linearGradient id="SVGID_12_" gradientUnits="userSpaceOnUse" x1="-514.8503" y1="683.9866" x2="-513.8892" y2="683.9866" gradientTransform="matrix(115.4321 0 0 -115.4321 59418.7656 79070.7578)">
			<stop  offset="0" style="stop-color:#F7BD35"/>
			<stop  offset="1" style="stop-color:#F68311"/>
		</linearGradient>
		<rect x="56.53" y="106.331" style="clip-path:url(#SVGID_11_);fill:url(#SVGID_12_);" width="12.693" height="20.816"/>
	</g>
	<g>
		<defs>
			<path id="SVGID_13_" d="M79.209,84.477c-3.661,3.581-7.016,7.534-9.969,11.752c-1.066,1.521-0.697,3.619,0.825,4.685
				c0.077,0.053,0.154,0.103,0.233,0.149c1.496,0.877,3.441,0.472,4.453-0.974c2.716-3.878,5.799-7.513,9.164-10.802
				c1.327-1.299,1.35-3.429,0.052-4.757c-0.658-0.674-1.532-1.011-2.406-1.011C80.713,83.52,79.864,83.838,79.209,84.477"/>
		</defs>
		<clipPath id="SVGID_14_">
			<use xlink:href="#SVGID_13_"  style="overflow:visible;"/>
		</clipPath>
		
			<linearGradient id="SVGID_15_" gradientUnits="userSpaceOnUse" x1="-514.8319" y1="684.052" x2="-513.8708" y2="684.052" gradientTransform="matrix(78.8354 46.204 46.204 -78.8354 9006.8564 77777.6953)">
			<stop  offset="0" style="stop-color:#F7BD35"/>
			<stop  offset="1" style="stop-color:#F68311"/>
		</linearGradient>
		<polygon style="clip-path:url(#SVGID_14_);fill:url(#SVGID_15_);" points="72.544,76.065 93.3,88.23 80.895,109.397 
			60.138,97.232 		"/>
	</g>
	<g>
		<defs>
			<path id="SVGID_16_" d="M53.683,95.029c-7.216,12.313-11.408,25.585-12.785,38.938c2.387-1.753,4.87-3.384,7.446-4.871
				c1.761-10.532,5.433-20.923,11.143-30.666c5.71-9.743,12.982-18.024,21.309-24.708c0.052-2.978,0.255-5.944,0.617-8.884
				C70.437,72.564,60.904,82.708,53.683,95.029"/>
		</defs>
		<clipPath id="SVGID_17_">
			<use xlink:href="#SVGID_16_"  style="overflow:visible;"/>
		</clipPath>
		
			<linearGradient id="SVGID_18_" gradientUnits="userSpaceOnUse" x1="-514.8319" y1="684.0604" x2="-513.8708" y2="684.0604" gradientTransform="matrix(78.8354 46.204 46.204 -78.8354 8999.5771 77790.1172)">
			<stop  offset="0" style="stop-color:#F7BD35"/>
			<stop  offset="1" style="stop-color:#F68311"/>
		</linearGradient>
		<polygon style="clip-path:url(#SVGID_17_);fill:url(#SVGID_18_);" points="51.257,47.164 111.57,82.513 71.055,151.641 
			10.742,116.293 		"/>
	</g>
	<g>
		<defs>
			<path id="SVGID_19_" d="M42.074,88.226c-10.793,18.417-15.641,38.7-15.136,58.614c2.111-2.461,4.377-4.787,6.776-6.979
				c0.657-16.481,5.257-33.035,14.166-48.234c8.908-15.199,21.098-27.292,35.161-35.929c0.735-3.155,1.666-6.264,2.781-9.309
				C68.196,55.666,52.863,69.818,42.074,88.226"/>
		</defs>
		<clipPath id="SVGID_20_">
			<use xlink:href="#SVGID_19_"  style="overflow:visible;"/>
		</clipPath>
		
			<linearGradient id="SVGID_21_" gradientUnits="userSpaceOnUse" x1="-514.8319" y1="684.0591" x2="-513.8708" y2="684.0591" gradientTransform="matrix(78.8354 46.204 46.204 -78.8354 8999.5723 77790.125)">
			<stop  offset="0" style="stop-color:#F7BD35"/>
			<stop  offset="1" style="stop-color:#F68311"/>
		</linearGradient>
		<polygon style="clip-path:url(#SVGID_20_);fill:url(#SVGID_21_);" points="41.617,20.482 129.641,72.071 70.637,172.747 
			-17.388,121.158 		"/>
	</g>
	<g>
		<defs>
			<path id="SVGID_22_" d="M30.465,81.422c-15.303,26.11-19.956,55.567-15.267,83.302c0.7-1.461,1.446-2.906,2.242-4.323
				c0.275-0.506,0.562-0.996,0.849-1.486c0.773-1.318,1.573-2.608,2.416-3.875c-2.241-23.659,2.657-48.193,15.564-70.217
				C49.177,62.801,68.21,46.54,89.945,36.92c0.68-1.35,1.416-2.68,2.183-3.991c0.287-0.489,0.582-0.995,0.886-1.474
				c0.847-1.387,1.738-2.736,2.656-4.058C69.19,36.865,45.769,55.311,30.465,81.422"/>
		</defs>
		<clipPath id="SVGID_23_">
			<use xlink:href="#SVGID_22_"  style="overflow:visible;"/>
		</clipPath>
		
			<linearGradient id="SVGID_24_" gradientUnits="userSpaceOnUse" x1="-514.8319" y1="684.0475" x2="-513.8708" y2="684.0475" gradientTransform="matrix(78.8354 46.204 46.204 -78.8354 8999.5723 77790.125)">
			<stop  offset="0" style="stop-color:#F7BD35"/>
			<stop  offset="1" style="stop-color:#F68311"/>
		</linearGradient>
		<polygon style="clip-path:url(#SVGID_23_);fill:url(#SVGID_24_);" points="32.282,-9.753 155.577,62.508 73.897,201.874 
			-49.398,129.614 		"/>
	</g>
	<g>
		<defs>
			<path id="SVGID_25_" d="M18.857,74.618C-2.325,110.762-5.092,152.699,7.7,189.472c0.626-4.547,1.626-9.029,3.003-13.413
				c-8.071-32.112-4.066-67.285,13.958-98.039c18.025-30.754,46.755-51.435,78.717-60.085c3.147-3.336,6.569-6.399,10.234-9.176
				C75.278,15.568,40.041,38.473,18.857,74.618"/>
		</defs>
		<clipPath id="SVGID_26_">
			<use xlink:href="#SVGID_25_"  style="overflow:visible;"/>
		</clipPath>
		
			<linearGradient id="SVGID_27_" gradientUnits="userSpaceOnUse" x1="-514.8319" y1="684.0251" x2="-513.8708" y2="684.0251" gradientTransform="matrix(78.8354 46.204 46.204 -78.8354 8999.5742 77790.125)">
			<stop  offset="0" style="stop-color:#F7BD35"/>
			<stop  offset="1" style="stop-color:#F68311"/>
		</linearGradient>
		<polygon style="clip-path:url(#SVGID_26_);fill:url(#SVGID_27_);" points="25.257,-43.024 192.446,54.962 83.263,241.255 
			-83.926,143.269 		"/>
	</g>
	<g>
		<defs>
			<path id="SVGID_28_" d="M83.835,103.419c-1.292,1.685-0.973,4.098,0.712,5.39s4.098,0.974,5.39-0.712
				c1.292-1.685,0.974-4.098-0.712-5.39c-0.697-0.535-1.519-0.794-2.335-0.794C85.734,101.913,84.592,102.431,83.835,103.419"/>
		</defs>
		<clipPath id="SVGID_29_">
			<use xlink:href="#SVGID_28_"  style="overflow:visible;"/>
		</clipPath>
		
			<linearGradient id="SVGID_30_" gradientUnits="userSpaceOnUse" x1="-514.8319" y1="684.0547" x2="-513.8708" y2="684.0547" gradientTransform="matrix(78.8354 46.204 46.204 -78.8354 9003.5381 77783.3594)">
			<stop  offset="0" style="stop-color:#F7BD35"/>
			<stop  offset="1" style="stop-color:#F68311"/>
		</linearGradient>
		<polygon style="clip-path:url(#SVGID_29_);fill:url(#SVGID_30_);" points="84.764,98.124 94.801,104.006 89.008,113.889 
			78.972,108.007 		"/>
	</g>
	<g>
		<defs>
			<path id="SVGID_31_" d="M89.903,115.611c-1.292,1.686-0.973,4.099,0.713,5.39c1.685,1.293,4.097,0.974,5.39-0.711
				c1.291-1.685,0.972-4.098-0.713-5.39c-0.698-0.535-1.52-0.794-2.336-0.794C91.802,114.106,90.66,114.624,89.903,115.611"/>
		</defs>
		<clipPath id="SVGID_32_">
			<use xlink:href="#SVGID_31_"  style="overflow:visible;"/>
		</clipPath>
		
			<linearGradient id="SVGID_33_" gradientUnits="userSpaceOnUse" x1="-514.8319" y1="684.058" x2="-513.8708" y2="684.058" gradientTransform="matrix(78.8354 46.204 46.204 -78.8354 8999.6172 77790.0469)">
			<stop  offset="0" style="stop-color:#F7BD35"/>
			<stop  offset="1" style="stop-color:#F68311"/>
		</linearGradient>
		<polygon style="clip-path:url(#SVGID_32_);fill:url(#SVGID_33_);" points="90.831,110.317 100.868,116.199 95.076,126.082 
			85.039,120.2 		"/>
	</g>
	<g>
		<defs>
			<path id="SVGID_34_" d="M75.114,118.712c-0.811,1.962,0.121,4.21,2.083,5.022c1.962,0.812,4.211-0.121,5.022-2.084
				c0.812-1.962-0.121-4.21-2.083-5.021c-0.481-0.199-0.978-0.293-1.468-0.293C77.158,116.337,75.726,117.231,75.114,118.712"/>
		</defs>
		<clipPath id="SVGID_35_">
			<use xlink:href="#SVGID_34_"  style="overflow:visible;"/>
		</clipPath>
		
			<linearGradient id="SVGID_36_" gradientUnits="userSpaceOnUse" x1="-514.8319" y1="684.062" x2="-513.8708" y2="684.062" gradientTransform="matrix(78.8354 46.204 46.204 -78.8354 8994.8037 77798.2656)">
			<stop  offset="0" style="stop-color:#F7BD35"/>
			<stop  offset="1" style="stop-color:#F68311"/>
		</linearGradient>
		<polygon style="clip-path:url(#SVGID_35_);fill:url(#SVGID_36_);" points="76.534,112.529 86.612,118.436 80.799,128.354 
			70.722,122.447 		"/>
	</g>
	<g>
		<defs>
			<path id="SVGID_37_" d="M210.988,166.502c-1.716,5.645-4.114,11.18-7.224,16.487c-3.115,5.316-6.773,10.112-10.873,14.37
				c0.505,2.77,0.879,5.551,1.113,8.328c5.978-5.487,11.253-11.942,15.565-19.296c4.31-7.355,7.363-15.112,9.221-23.014
				C216.257,164.544,213.655,165.581,210.988,166.502"/>
		</defs>
		<clipPath id="SVGID_38_">
			<use xlink:href="#SVGID_37_"  style="overflow:visible;"/>
		</clipPath>
		
			<linearGradient id="SVGID_39_" gradientUnits="userSpaceOnUse" x1="-514.9072" y1="684.0659" x2="-513.9461" y2="684.0659" gradientTransform="matrix(68.615 40.214 40.214 -68.615 8010.1792 67818.2344)">
			<stop  offset="0" style="stop-color:#617379"/>
			<stop  offset="1" style="stop-color:#32434C"/>
		</linearGradient>
		<polygon style="clip-path:url(#SVGID_38_);fill:url(#SVGID_39_);" points="199.513,152.079 237.248,174.194 212.169,216.985 
			174.434,194.869 		"/>
	</g>
	<g>
		<defs>
			<path id="SVGID_40_" d="M226.789,159.253c-1.766,10.54-5.444,20.939-11.158,30.691c-5.715,9.751-12.991,18.041-21.324,24.733
				c-0.047,2.969-0.249,5.937-0.621,8.87c10.99-7.727,20.528-17.879,27.749-30.201c7.222-12.322,11.413-25.595,12.786-38.961
				C231.846,156.136,229.364,157.766,226.789,159.253"/>
		</defs>
		<clipPath id="SVGID_41_">
			<use xlink:href="#SVGID_40_"  style="overflow:visible;"/>
		</clipPath>
		
			<linearGradient id="SVGID_42_" gradientUnits="userSpaceOnUse" x1="-514.9072" y1="684.0695" x2="-513.9461" y2="684.0695" gradientTransform="matrix(68.615 40.214 40.214 -68.615 8010.1768 67818.2422)">
			<stop  offset="0" style="stop-color:#617379"/>
			<stop  offset="1" style="stop-color:#32434C"/>
		</linearGradient>
		<polygon style="clip-path:url(#SVGID_41_);fill:url(#SVGID_42_);" points="204.049,136.702 264.392,172.067 223.857,241.229 
			163.515,205.863 		"/>
	</g>
	<g>
		<defs>
			<path id="SVGID_43_" d="M241.395,148.508c-0.654,16.494-5.249,33.04-14.157,48.238c-8.907,15.199-21.098,27.293-35.168,35.923
				c-0.727,3.162-1.658,6.27-2.774,9.315c17.625-9.277,32.958-23.429,43.747-41.837c10.788-18.408,15.636-38.692,15.118-58.603
				C246.051,144.007,243.789,146.325,241.395,148.508"/>
		</defs>
		<clipPath id="SVGID_44_">
			<use xlink:href="#SVGID_43_"  style="overflow:visible;"/>
		</clipPath>
		
			<linearGradient id="SVGID_45_" gradientUnits="userSpaceOnUse" x1="-514.9072" y1="684.0711" x2="-513.9461" y2="684.0711" gradientTransform="matrix(68.615 40.214 40.214 -68.615 8010.1768 67818.2422)">
			<stop  offset="0" style="stop-color:#617379"/>
			<stop  offset="1" style="stop-color:#32434C"/>
		</linearGradient>
		<polygon style="clip-path:url(#SVGID_44_);fill:url(#SVGID_45_);" points="204.479,115.64 292.495,167.225 233.497,267.89 
			145.481,216.305 		"/>
	</g>
	<g>
		<defs>
			<path id="SVGID_46_" d="M257.663,127.976c-0.27,0.499-0.549,0.993-0.835,1.483c-0.773,1.318-1.573,2.608-2.425,3.869
				c2.241,23.661-2.654,48.208-15.555,70.222c-12.903,22.015-31.927,38.28-53.666,47.887c-0.685,1.359-1.42,2.688-2.192,4.007
				c-0.286,0.489-0.581,0.974-0.884,1.453c-0.852,1.395-1.753,2.761-2.685,4.086c26.49-9.463,49.923-27.911,65.232-54.03
				c15.308-26.12,19.953-55.581,15.264-83.316C259.216,125.098,258.464,126.552,257.663,127.976"/>
		</defs>
		<clipPath id="SVGID_47_">
			<use xlink:href="#SVGID_46_"  style="overflow:visible;"/>
		</clipPath>
		
			<linearGradient id="SVGID_48_" gradientUnits="userSpaceOnUse" x1="-514.9072" y1="684.0844" x2="-513.9461" y2="684.0844" gradientTransform="matrix(68.615 40.214 40.214 -68.615 8010.1792 67818.2344)">
			<stop  offset="0" style="stop-color:#617379"/>
			<stop  offset="1" style="stop-color:#32434C"/>
		</linearGradient>
		<polygon style="clip-path:url(#SVGID_47_);fill:url(#SVGID_48_);" points="201.199,86.476 324.52,158.753 242.826,298.144 
			119.505,225.867 		"/>
	</g>
	<g>
		<defs>
			<path id="SVGID_49_" d="M264.409,112.323c8.08,32.117,4.071,67.277-13.953,98.03c-18.024,30.755-46.742,51.432-78.712,60.078
				c-3.151,3.344-6.574,6.407-10.234,9.174c38.335-6.808,73.567-29.705,94.751-65.85c21.183-36.143,23.945-78.072,11.151-114.845
				C266.787,103.457,265.785,107.94,264.409,112.323"/>
		</defs>
		<clipPath id="SVGID_50_">
			<use xlink:href="#SVGID_49_"  style="overflow:visible;"/>
		</clipPath>
		
			<linearGradient id="SVGID_51_" gradientUnits="userSpaceOnUse" x1="-514.9072" y1="684.1101" x2="-513.9461" y2="684.1101" gradientTransform="matrix(68.615 40.214 40.214 -68.615 8010.1792 67818.2344)">
			<stop  offset="0" style="stop-color:#617379"/>
			<stop  offset="1" style="stop-color:#32434C"/>
		</linearGradient>
		<polygon style="clip-path:url(#SVGID_50_);fill:url(#SVGID_51_);" points="191.857,47.131 359.031,145.109 249.858,331.384 
			82.684,233.406 		"/>
	</g>
	<g>
		<defs>
			<path id="SVGID_52_" d="M185.18,180.277c-1.292,1.686-0.973,4.099,0.712,5.39c1.685,1.292,4.098,0.974,5.39-0.711
				c1.292-1.686,0.973-4.098-0.712-5.391c-0.698-0.534-1.519-0.793-2.335-0.793C187.079,178.772,185.937,179.29,185.18,180.277"/>
		</defs>
		<clipPath id="SVGID_53_">
			<use xlink:href="#SVGID_52_"  style="overflow:visible;"/>
		</clipPath>
		
			<linearGradient id="SVGID_54_" gradientUnits="userSpaceOnUse" x1="-514.9072" y1="684.0706" x2="-513.9461" y2="684.0706" gradientTransform="matrix(68.615 40.214 40.214 -68.615 8006.2163 67825)">
			<stop  offset="0" style="stop-color:#617379"/>
			<stop  offset="1" style="stop-color:#32434C"/>
		</linearGradient>
		<polygon style="clip-path:url(#SVGID_53_);fill:url(#SVGID_54_);" points="186.109,174.983 196.145,180.865 190.353,190.748 
			180.317,184.866 		"/>
	</g>
	<g>
		<defs>
			<path id="SVGID_55_" d="M192.898,166.723c-0.811,1.962,0.121,4.21,2.083,5.022c1.962,0.811,4.211-0.121,5.023-2.083
				c0.811-1.963-0.122-4.211-2.084-5.023c-0.481-0.199-0.978-0.293-1.468-0.293C194.943,164.346,193.511,165.241,192.898,166.723"/>
		</defs>
		<clipPath id="SVGID_56_">
			<use xlink:href="#SVGID_55_"  style="overflow:visible;"/>
		</clipPath>
		
			<linearGradient id="SVGID_57_" gradientUnits="userSpaceOnUse" x1="-514.9072" y1="684.062" x2="-513.9461" y2="684.062" gradientTransform="matrix(68.615 40.214 40.214 -68.615 8014.9502 67810.1016)">
			<stop  offset="0" style="stop-color:#617379"/>
			<stop  offset="1" style="stop-color:#32434C"/>
		</linearGradient>
		<polygon style="clip-path:url(#SVGID_56_);fill:url(#SVGID_57_);" points="194.319,160.539 204.396,166.445 198.584,176.363 
			188.506,170.457 		"/>
	</g>
</g>
<g>
	<path style="fill:#2B2B2B;" d="M326.131,78.594v47.278l-11.877-11.26V89.855L326.131,78.594z M314.254,178.01h54.065v11.183
		h-54.065V178.01z M378.732,89.855h-51.058v-11.26h51.058V89.855z M381.739,144.614v13.112l-54.066-30.774v-13.265L381.739,144.614z
		 M369.862,189.194v-36.635l11.877,6.787v18.664L369.862,189.194z"/>
	<path style="fill:#2B2B2B;" d="M450.382,110.216v78.977l-11.877-11.183v-67.794H450.382z M491.259,178.01l-11.801,11.183h-27.534
		V178.01H491.259z M492.88,110.216h11.876v78.977H492.88V110.216z"/>
	<path style="fill:#E7531B;" d="M573.322,94.405h-11.877V78.594h11.877V94.405z M573.322,189.194h-11.877v-78.977h11.877V189.194z"
		/>
	<path style="fill:#2B2B2B;" d="M630.088,121.399l11.877-11.183h42.342l11.183,11.183H630.088z M641.965,123.019v66.175
		l-11.877-11.878v-54.297H641.965z M696.107,178.011l-12.109,11.183h-40.491v-11.183H696.107z"/>
	<path style="fill:#2B2B2B;" d="M764.75,110.216v78.977l-11.878-11.183v-67.794H764.75z M805.626,178.01l-11.8,11.183h-27.534
		V178.01H805.626z M807.247,110.216h11.877v78.977h-11.877V110.216z"/>
	<rect x="875.812" y="70.727" style="fill:#2B2B2B;" width="11.877" height="118.467"/>
	<path style="fill:#E7531B;" d="M316.86,232.983c-0.218,0.259-0.393,0.423-0.526,0.495c-0.134,0.073-0.297,0.11-0.49,0.11
		c-0.38,0-0.684-0.127-0.914-0.382c-0.23-0.253-0.345-0.675-0.345-1.264v-1.669c0-0.597,0.115-1.023,0.345-1.276
		c0.23-0.255,0.534-0.382,0.914-0.382c0.29,0,0.533,0.077,0.731,0.23c0.198,0.154,0.349,0.409,0.454,0.769
		c0.105,0.358,0.213,0.603,0.327,0.732c0.234,0.249,0.65,0.504,1.247,0.761c0.597,0.259,1.249,0.388,1.96,0.388
		c1.105,0,2.013-0.259,2.723-0.775c0.451-0.315,0.677-0.703,0.677-1.162c0-0.307-0.109-0.595-0.326-0.865
		c-0.218-0.27-0.574-0.493-1.065-0.671c-0.323-0.121-1.045-0.286-2.166-0.497c-1.354-0.249-2.379-0.552-3.073-0.907
		c-0.694-0.355-1.242-0.854-1.645-1.5c-0.404-0.645-0.605-1.343-0.605-2.092c0-1.187,0.496-2.225,1.488-3.116
		c0.992-0.891,2.283-1.337,3.871-1.337c0.637,0,1.228,0.071,1.773,0.211c0.544,0.142,1.038,0.358,1.481,0.648
		c0.323-0.315,0.646-0.472,0.968-0.472c0.363,0,0.659,0.127,0.889,0.381c0.231,0.255,0.346,0.677,0.346,1.265v1.864
		c0,0.596-0.115,1.022-0.346,1.275c-0.23,0.255-0.526,0.382-0.889,0.382c-0.306,0-0.572-0.092-0.798-0.278
		c-0.178-0.137-0.311-0.411-0.4-0.823c-0.088-0.412-0.202-0.706-0.338-0.884c-0.235-0.307-0.585-0.564-1.052-0.774
		c-0.468-0.21-1.009-0.314-1.621-0.314c-0.896,0-1.603,0.207-2.123,0.623c-0.521,0.415-0.78,0.85-0.78,1.3
		c0,0.307,0.107,0.603,0.32,0.889s0.527,0.511,0.938,0.672c0.274,0.113,1.047,0.295,2.316,0.544
		c1.271,0.251,2.247,0.525,2.928,0.823c0.681,0.299,1.248,0.767,1.7,1.404c0.451,0.637,0.677,1.396,0.677,2.275
		c0,1.225-0.431,2.206-1.294,2.939c-1.147,0.968-2.606,1.452-4.381,1.452c-0.685,0-1.352-0.084-2.002-0.248
		C318.104,233.561,317.473,233.313,316.86,232.983"/>
	<path style="fill:#E7531B;" d="M347.141,232.244v4.065h1.489c0.597,0,1.023,0.114,1.276,0.344c0.254,0.231,0.381,0.531,0.381,0.902
		c0,0.363-0.127,0.658-0.381,0.888c-0.254,0.231-0.679,0.345-1.276,0.345h-4.392c-0.597,0-1.022-0.114-1.276-0.345
		c-0.254-0.23-0.381-0.525-0.381-0.888c0-0.372,0.129-0.672,0.387-0.902c0.258-0.23,0.681-0.344,1.27-0.344h0.424v-11.203h-0.424
		c-0.597,0-1.022-0.115-1.276-0.345c-0.254-0.23-0.381-0.531-0.381-0.902c0-0.363,0.127-0.659,0.381-0.889
		c0.255-0.23,0.68-0.345,1.276-0.345h2.903v0.847c0.581-0.395,1.182-0.689,1.803-0.883c0.621-0.193,1.258-0.29,1.912-0.29
		c1.693,0,3.138,0.575,4.332,1.723c1.193,1.15,1.791,2.467,1.791,3.951c0,1.638-0.706,2.988-2.117,4.053
		c-1.178,0.887-2.505,1.33-3.981,1.33c-0.637,0-1.267-0.092-1.887-0.278C348.372,232.894,347.755,232.615,347.141,232.244
		 M354.498,227.985c0-0.346-0.137-0.787-0.411-1.324c-0.274-0.536-0.696-0.984-1.265-1.343c-0.568-0.359-1.236-0.539-2.002-0.539
		c-1.234,0-2.213,0.464-2.94,1.392c-0.492,0.637-0.738,1.25-0.738,1.84c0,0.661,0.353,1.304,1.059,1.929
		c0.705,0.625,1.578,0.938,2.619,0.938c1.049,0,1.924-0.31,2.626-0.932C354.147,229.325,354.498,228.672,354.498,227.985"/>
	<path style="fill:#E7531B;" d="M382.191,233.611v-0.581c-0.621,0.332-1.306,0.579-2.057,0.744
		c-0.751,0.166-1.432,0.248-2.045,0.248c-1.33,0-2.411-0.353-3.242-1.058c-0.831-0.705-1.247-1.486-1.247-2.341
		c0-1.04,0.531-2.006,1.591-2.898c1.061-0.891,2.527-1.337,4.398-1.337c0.751,0,1.617,0.082,2.602,0.242v-0.593
		c0-0.371-0.16-0.673-0.478-0.907c-0.319-0.234-0.926-0.351-1.821-0.351c-0.734,0-1.686,0.145-2.854,0.435
		c-0.436,0.105-0.775,0.158-1.017,0.158c-0.331,0-0.611-0.119-0.841-0.357c-0.23-0.238-0.345-0.543-0.345-0.913
		c0-0.21,0.04-0.392,0.121-0.545c0.081-0.153,0.194-0.276,0.339-0.37c0.145-0.092,0.447-0.203,0.907-0.333
		c0.612-0.169,1.238-0.305,1.875-0.405c0.637-0.101,1.214-0.151,1.73-0.151c1.541,0,2.736,0.333,3.587,0.998
		c0.852,0.665,1.276,1.574,1.276,2.728v5.106h0.424c0.597,0,1.023,0.114,1.276,0.344c0.254,0.23,0.382,0.531,0.382,0.902
		c0,0.362-0.128,0.658-0.382,0.888c-0.254,0.23-0.68,0.345-1.276,0.345H382.191z M382.191,229.171
		c-0.992-0.193-1.908-0.29-2.747-0.29c-1.008,0-1.875,0.247-2.601,0.738c-0.452,0.315-0.678,0.633-0.678,0.956
		c0,0.234,0.109,0.423,0.327,0.568c0.403,0.266,0.955,0.4,1.657,0.4c0.598,0,1.272-0.117,2.027-0.351
		c0.753-0.235,1.425-0.553,2.014-0.955V229.171z"/>
	<path style="fill:#E7531B;" d="M413.563,223.074c0.298-0.283,0.605-0.424,0.92-0.424c0.355,0,0.647,0.127,0.878,0.382
		c0.23,0.254,0.344,0.676,0.344,1.264v1.596c0,0.598-0.114,1.022-0.344,1.271c-0.231,0.251-0.532,0.376-0.902,0.376
		c-0.339,0-0.626-0.096-0.859-0.29c-0.17-0.146-0.303-0.441-0.4-0.89c-0.097-0.447-0.331-0.779-0.702-0.998
		c-0.653-0.387-1.488-0.581-2.504-0.581c-1.171,0-2.108,0.343-2.813,1.028c-0.706,0.685-1.059,1.552-1.059,2.601
		c0,0.968,0.339,1.732,1.016,2.292c0.679,0.561,1.803,0.842,3.376,0.842c1.032,0,1.875-0.105,2.528-0.315
		c0.387-0.129,0.754-0.349,1.101-0.658c0.347-0.311,0.661-0.466,0.944-0.466c0.338,0,0.631,0.124,0.877,0.375
		c0.246,0.25,0.369,0.544,0.369,0.883c0,0.548-0.375,1.068-1.125,1.561c-1.113,0.733-2.743,1.1-4.888,1.1
		c-1.928,0-3.427-0.399-4.5-1.198c-1.452-1.073-2.178-2.54-2.178-4.404c0-1.767,0.588-3.229,1.766-4.386
		c1.177-1.157,2.714-1.736,4.61-1.736c0.685,0,1.323,0.064,1.912,0.194C412.518,222.622,413.063,222.815,413.563,223.074"/>
	<path style="fill:#E7531B;" d="M445.66,229.377h-10.175c0.258,0.646,0.715,1.166,1.373,1.561c0.657,0.395,1.546,0.593,2.667,0.593
		c0.92,0,2.141-0.198,3.667-0.593c0.629-0.161,1.064-0.242,1.306-0.242c0.331,0,0.609,0.117,0.835,0.351
		c0.225,0.234,0.338,0.529,0.338,0.883c0,0.324-0.121,0.598-0.362,0.823c-0.323,0.299-1.11,0.583-2.359,0.853
		c-1.25,0.27-2.453,0.405-3.605,0.405c-1.985,0-3.571-0.56-4.761-1.681c-1.19-1.121-1.785-2.501-1.785-4.138
		c0-1.742,0.644-3.16,1.93-4.253c1.287-1.093,2.769-1.64,4.446-1.64c1.008,0,1.934,0.178,2.777,0.532
		c0.843,0.355,1.471,0.737,1.882,1.149c0.581,0.597,1.06,1.335,1.44,2.213c0.258,0.614,0.387,1.323,0.387,2.13V229.377z
		 M442.913,226.897c-0.379-0.71-0.876-1.241-1.488-1.592c-0.613-0.35-1.344-0.526-2.19-0.526c-0.839,0-1.565,0.176-2.178,0.526
		c-0.613,0.351-1.113,0.881-1.5,1.592H442.913z"/>
	<path style="fill:#E7531B;" d="M498.894,225.107v6.025h3.532c0.598,0,1.023,0.114,1.276,0.344c0.255,0.23,0.382,0.531,0.382,0.901
		c0,0.363-0.127,0.659-0.382,0.889c-0.254,0.23-0.679,0.345-1.276,0.345h-7.489c-0.596,0-1.022-0.115-1.276-0.345
		c-0.254-0.23-0.381-0.531-0.381-0.901c0-0.363,0.127-0.66,0.381-0.89c0.255-0.23,0.68-0.344,1.276-0.344h1.476v-6.025h-1.186
		c-0.596,0-1.022-0.115-1.276-0.345c-0.254-0.23-0.381-0.531-0.381-0.901c0-0.363,0.127-0.66,0.381-0.89
		c0.255-0.23,0.68-0.345,1.276-0.345h1.186v-0.944c0-1.08,0.406-1.978,1.216-2.691c0.811-0.714,1.987-1.072,3.527-1.072
		c0.685,0,1.477,0.062,2.377,0.188c0.899,0.125,1.475,0.301,1.73,0.526c0.255,0.226,0.381,0.516,0.381,0.872
		c0,0.379-0.113,0.687-0.338,0.926c-0.226,0.237-0.504,0.357-0.834,0.357c-0.154,0-0.383-0.029-0.689-0.085
		c-1.026-0.202-1.933-0.303-2.723-0.303c-0.823,0-1.389,0.123-1.7,0.369c-0.31,0.246-0.465,0.55-0.465,0.913v0.944h3.822
		c0.598,0,1.023,0.115,1.277,0.345c0.254,0.23,0.381,0.531,0.381,0.901c0,0.363-0.127,0.66-0.381,0.89
		c-0.255,0.23-0.679,0.345-1.277,0.345H498.894z"/>
	<path style="fill:#E7531B;" d="M535.091,228.325c0,0.952-0.263,1.873-0.792,2.764c-0.529,0.892-1.315,1.601-2.359,2.13
		c-1.045,0.529-2.136,0.792-3.273,0.792c-1.129,0-2.211-0.26-3.243-0.78c-1.032-0.52-1.819-1.227-2.359-2.123
		c-0.541-0.895-0.81-1.831-0.81-2.806c0-0.992,0.273-1.965,0.823-2.922c0.548-0.955,1.336-1.708,2.365-2.257
		c1.027-0.549,2.102-0.823,3.224-0.823c1.129,0,2.216,0.28,3.261,0.841c1.045,0.56,1.833,1.315,2.365,2.262
		C534.826,226.351,535.091,227.324,535.091,228.325 M532.612,228.336c0-0.798-0.286-1.532-0.859-2.202
		c-0.782-0.902-1.811-1.355-3.085-1.355c-1.122,0-2.057,0.359-2.807,1.077c-0.75,0.718-1.125,1.548-1.125,2.492
		c0,0.774,0.379,1.498,1.137,2.171c0.758,0.675,1.69,1.011,2.795,1.011c1.113,0,2.049-0.336,2.807-1.011
		C532.232,229.847,532.612,229.119,532.612,228.336"/>
	<path style="fill:#E7531B;" d="M557.873,222.626v1.548c1.04-0.75,1.861-1.249,2.462-1.5c0.601-0.25,1.163-0.374,1.687-0.374
		c0.806,0,1.59,0.297,2.348,0.895c0.516,0.403,0.775,0.815,0.775,1.234c0,0.356-0.123,0.655-0.369,0.901
		c-0.247,0.247-0.543,0.37-0.89,0.37c-0.307,0-0.629-0.153-0.968-0.46c-0.338-0.307-0.641-0.459-0.906-0.459
		c-0.347,0-0.865,0.218-1.555,0.654c-0.69,0.435-1.551,1.089-2.583,1.96v3.739h3.533c0.597,0,1.022,0.114,1.276,0.344
		c0.254,0.23,0.381,0.531,0.381,0.902c0,0.362-0.127,0.658-0.381,0.888c-0.255,0.23-0.679,0.345-1.276,0.345h-7.49
		c-0.596,0-1.022-0.115-1.276-0.345c-0.254-0.23-0.381-0.531-0.381-0.901c0-0.363,0.127-0.66,0.381-0.89
		c0.255-0.23,0.68-0.344,1.276-0.344h1.477v-6.025h-0.896c-0.597,0-1.023-0.115-1.277-0.345c-0.253-0.23-0.381-0.531-0.381-0.901
		c0-0.363,0.128-0.66,0.381-0.89c0.255-0.23,0.68-0.345,1.277-0.345H557.873z"/>
	<path style="fill:#E7531B;" d="M605.227,233.611v-0.581c-0.621,0.332-1.306,0.579-2.058,0.744c-0.75,0.166-1.431,0.248-2.043,0.248
		c-1.331,0-2.411-0.353-3.243-1.058c-0.831-0.705-1.247-1.486-1.247-2.341c0-1.04,0.531-2.006,1.592-2.898
		c1.06-0.891,2.526-1.337,4.397-1.337c0.751,0,1.617,0.082,2.602,0.242v-0.593c0-0.371-0.16-0.673-0.479-0.907
		c-0.318-0.234-0.926-0.351-1.82-0.351c-0.734,0-1.686,0.145-2.855,0.435c-0.435,0.105-0.775,0.158-1.016,0.158
		c-0.332,0-0.611-0.119-0.841-0.357c-0.23-0.238-0.345-0.543-0.345-0.913c0-0.21,0.04-0.392,0.121-0.545
		c0.081-0.153,0.194-0.276,0.339-0.37c0.145-0.092,0.447-0.203,0.906-0.333c0.614-0.169,1.239-0.305,1.876-0.405
		c0.637-0.101,1.214-0.151,1.73-0.151c1.541,0,2.736,0.333,3.587,0.998c0.852,0.665,1.276,1.574,1.276,2.728v5.106h0.424
		c0.597,0,1.022,0.114,1.276,0.344c0.255,0.23,0.381,0.531,0.381,0.902c0,0.362-0.126,0.658-0.381,0.888
		c-0.255,0.23-0.68,0.345-1.276,0.345H605.227z M605.227,229.171c-0.993-0.193-1.908-0.29-2.747-0.29
		c-1.008,0-1.875,0.247-2.601,0.738c-0.452,0.315-0.678,0.633-0.678,0.956c0,0.234,0.109,0.423,0.326,0.568
		c0.404,0.266,0.956,0.4,1.659,0.4c0.597,0,1.272-0.117,2.026-0.351c0.754-0.235,1.425-0.553,2.015-0.955V229.171z"/>
	<path style="fill:#E7531B;" d="M633.972,217.92v13.212h2.977c0.596,0,1.022,0.114,1.276,0.344c0.253,0.23,0.381,0.531,0.381,0.902
		c0,0.363-0.128,0.659-0.381,0.889c-0.255,0.23-0.68,0.345-1.276,0.345h-8.434c-0.597,0-1.022-0.115-1.276-0.345
		c-0.254-0.23-0.381-0.531-0.381-0.901c0-0.363,0.127-0.66,0.381-0.89c0.255-0.23,0.679-0.344,1.276-0.344h2.976V220.4h-1.996
		c-0.589,0-1.012-0.115-1.27-0.345c-0.258-0.23-0.387-0.531-0.387-0.901c0-0.363,0.128-0.66,0.381-0.89
		c0.255-0.23,0.68-0.345,1.277-0.345H633.972z"/>
	<path style="fill:#E7531B;" d="M663.71,217.92v13.212h2.977c0.596,0,1.022,0.114,1.276,0.344c0.253,0.23,0.381,0.531,0.381,0.902
		c0,0.363-0.128,0.659-0.381,0.889c-0.255,0.23-0.68,0.345-1.276,0.345h-8.434c-0.596,0-1.022-0.115-1.276-0.345
		c-0.254-0.23-0.381-0.531-0.381-0.901c0-0.363,0.127-0.66,0.381-0.89c0.255-0.23,0.68-0.344,1.276-0.344h2.976V220.4h-1.996
		c-0.589,0-1.012-0.115-1.27-0.345c-0.258-0.23-0.387-0.531-0.387-0.901c0-0.363,0.128-0.66,0.381-0.89
		c0.255-0.23,0.68-0.345,1.277-0.345H663.71z"/>
	<path style="fill:#E7531B;" d="M691.621,230.272h3.316l-3.57,6.727c-0.21,0.395-0.471,0.593-0.785,0.593
		c-0.21,0-0.389-0.068-0.539-0.206c-0.149-0.136-0.224-0.29-0.224-0.46c0-0.121,0.029-0.286,0.086-0.495L691.621,230.272z"/>
	<path style="fill:#E7531B;" d="M724.178,233.611v-0.581c-0.621,0.332-1.306,0.579-2.058,0.744c-0.75,0.166-1.431,0.248-2.043,0.248
		c-1.331,0-2.412-0.353-3.243-1.058c-0.831-0.705-1.247-1.486-1.247-2.341c0-1.04,0.531-2.006,1.592-2.898
		c1.06-0.891,2.526-1.337,4.397-1.337c0.751,0,1.617,0.082,2.602,0.242v-0.593c0-0.371-0.16-0.673-0.479-0.907
		c-0.318-0.234-0.926-0.351-1.82-0.351c-0.734,0-1.686,0.145-2.855,0.435c-0.435,0.105-0.775,0.158-1.017,0.158
		c-0.331,0-0.61-0.119-0.84-0.357c-0.23-0.238-0.345-0.543-0.345-0.913c0-0.21,0.04-0.392,0.121-0.545
		c0.081-0.153,0.194-0.276,0.339-0.37c0.144-0.092,0.447-0.203,0.906-0.333c0.614-0.169,1.239-0.305,1.876-0.405
		c0.637-0.101,1.214-0.151,1.73-0.151c1.541,0,2.736,0.333,3.587,0.998c0.851,0.665,1.276,1.574,1.276,2.728v5.106h0.424
		c0.597,0,1.022,0.114,1.276,0.344c0.254,0.23,0.381,0.531,0.381,0.902c0,0.362-0.127,0.658-0.381,0.888
		c-0.255,0.23-0.68,0.345-1.276,0.345H724.178z M724.178,229.171c-0.993-0.193-1.908-0.29-2.747-0.29
		c-1.008,0-1.875,0.247-2.601,0.738c-0.452,0.315-0.678,0.633-0.678,0.956c0,0.234,0.109,0.423,0.326,0.568
		c0.404,0.266,0.956,0.4,1.659,0.4c0.596,0,1.272-0.117,2.026-0.351c0.755-0.235,1.425-0.553,2.015-0.955V229.171z"/>
	<path style="fill:#E7531B;" d="M752.923,217.92v13.212h2.977c0.596,0,1.022,0.114,1.276,0.344c0.253,0.23,0.381,0.531,0.381,0.902
		c0,0.363-0.128,0.659-0.381,0.889c-0.255,0.23-0.68,0.345-1.276,0.345h-8.434c-0.596,0-1.022-0.115-1.276-0.345
		c-0.254-0.23-0.381-0.531-0.381-0.901c0-0.363,0.127-0.66,0.381-0.89c0.255-0.23,0.68-0.344,1.276-0.344h2.976V220.4h-1.996
		c-0.589,0-1.012-0.115-1.271-0.345c-0.258-0.23-0.387-0.531-0.387-0.901c0-0.363,0.128-0.66,0.381-0.89
		c0.255-0.23,0.68-0.345,1.277-0.345H752.923z"/>
	<path style="fill:#E7531B;" d="M781.44,229.039l-1.718,4.573h-2.335l-2.081-8.505c-0.452-0.025-0.793-0.152-1.023-0.382
		c-0.231-0.231-0.345-0.519-0.345-0.865c0-0.362,0.127-0.659,0.382-0.889c0.254-0.23,0.68-0.345,1.276-0.345h2.311
		c0.597,0,1.023,0.115,1.276,0.345c0.255,0.23,0.381,0.531,0.381,0.901c0,0.372-0.144,0.686-0.434,0.945
		c-0.218,0.193-0.646,0.29-1.283,0.29l0.944,3.932l1.537-4.029h2.202l1.548,4.029l0.969-3.932c-0.614,0-1.017-0.061-1.21-0.182
		c-0.388-0.251-0.581-0.605-0.581-1.065c0-0.362,0.126-0.659,0.381-0.889c0.254-0.23,0.679-0.345,1.276-0.345h2.336
		c0.596,0,1.022,0.115,1.276,0.345c0.253,0.23,0.381,0.531,0.381,0.901c0,0.331-0.112,0.612-0.333,0.842
		c-0.222,0.23-0.551,0.36-0.986,0.393l-2.033,8.505h-2.298L781.44,229.039z"/>
	<path style="fill:#E7531B;" d="M813.393,233.611v-0.581c-0.621,0.332-1.306,0.579-2.058,0.744c-0.75,0.166-1.431,0.248-2.043,0.248
		c-1.331,0-2.412-0.353-3.243-1.058c-0.831-0.705-1.247-1.486-1.247-2.341c0-1.04,0.531-2.006,1.592-2.898
		c1.06-0.891,2.526-1.337,4.397-1.337c0.751,0,1.617,0.082,2.602,0.242v-0.593c0-0.371-0.16-0.673-0.479-0.907
		c-0.318-0.234-0.926-0.351-1.82-0.351c-0.734,0-1.686,0.145-2.855,0.435c-0.435,0.105-0.775,0.158-1.017,0.158
		c-0.331,0-0.61-0.119-0.84-0.357c-0.23-0.238-0.345-0.543-0.345-0.913c0-0.21,0.04-0.392,0.121-0.545
		c0.081-0.153,0.194-0.276,0.339-0.37c0.144-0.092,0.447-0.203,0.906-0.333c0.614-0.169,1.239-0.305,1.876-0.405
		c0.637-0.101,1.214-0.151,1.73-0.151c1.541,0,2.736,0.333,3.587,0.998c0.851,0.665,1.276,1.574,1.276,2.728v5.106h0.424
		c0.597,0,1.022,0.114,1.276,0.344c0.254,0.23,0.381,0.531,0.381,0.902c0,0.362-0.127,0.658-0.381,0.888
		c-0.255,0.23-0.68,0.345-1.276,0.345H813.393z M813.393,229.171c-0.993-0.193-1.908-0.29-2.747-0.29
		c-1.008,0-1.875,0.247-2.601,0.738c-0.452,0.315-0.678,0.633-0.678,0.956c0,0.234,0.109,0.423,0.326,0.568
		c0.404,0.266,0.956,0.4,1.659,0.4c0.596,0,1.272-0.117,2.026-0.351c0.755-0.235,1.425-0.553,2.015-0.955V229.171z"/>
	<path style="fill:#E7531B;" d="M839.513,233.527l-4.295-8.42c-0.404-0.049-0.71-0.185-0.92-0.411
		c-0.21-0.226-0.315-0.5-0.315-0.823c0-0.371,0.128-0.672,0.382-0.901c0.255-0.23,0.68-0.345,1.276-0.345h2.263
		c0.597,0,1.022,0.115,1.276,0.345c0.253,0.23,0.381,0.53,0.381,0.901c0,0.362-0.128,0.659-0.381,0.889
		c-0.255,0.23-0.656,0.345-1.204,0.345l2.928,5.698l2.903-5.698c-0.532,0-0.924-0.115-1.179-0.345
		c-0.254-0.23-0.381-0.531-0.381-0.901c0-0.363,0.127-0.66,0.381-0.89c0.255-0.23,0.68-0.345,1.276-0.345h2.335
		c0.588,0,1.009,0.115,1.264,0.345c0.255,0.23,0.382,0.53,0.382,0.901c0,0.331-0.11,0.611-0.327,0.841
		c-0.218,0.23-0.541,0.361-0.968,0.393l-5.687,11.204c0.621,0,1.028,0.061,1.223,0.182c0.386,0.25,0.581,0.605,0.581,1.064
		c0,0.363-0.127,0.659-0.381,0.889c-0.255,0.231-0.68,0.345-1.276,0.345h-5.409c-0.597,0-1.022-0.114-1.276-0.345
		c-0.254-0.23-0.382-0.526-0.382-0.889c0-0.371,0.128-0.671,0.382-0.902c0.255-0.23,0.68-0.344,1.276-0.344h2.468L839.513,233.527z"
		/>
	<path style="fill:#E7531B;" d="M873.316,225.53c-0.403-0.251-0.827-0.437-1.27-0.562c-0.444-0.126-0.908-0.188-1.392-0.188
		c-0.96,0-1.722,0.158-2.287,0.472c-0.249,0.136-0.374,0.286-0.374,0.448c0,0.185,0.169,0.367,0.508,0.545
		c0.258,0.128,0.835,0.253,1.73,0.374c1.645,0.226,2.791,0.452,3.436,0.678c0.847,0.299,1.5,0.743,1.961,1.332
		c0.459,0.587,0.689,1.209,0.689,1.862c0,0.888-0.391,1.63-1.174,2.227c-1.121,0.863-2.577,1.295-4.367,1.295
		c-0.718,0-1.381-0.062-1.99-0.187c-0.608-0.125-1.168-0.309-1.676-0.551c-0.121,0.105-0.25,0.186-0.386,0.242
		c-0.137,0.056-0.278,0.085-0.424,0.085c-0.386,0-0.696-0.127-0.926-0.382c-0.23-0.254-0.345-0.679-0.345-1.276v-0.834
		c0-0.597,0.115-1.023,0.345-1.276c0.23-0.255,0.531-0.382,0.901-0.382c0.299,0,0.55,0.083,0.752,0.248
		c0.201,0.165,0.357,0.45,0.471,0.852c0.38,0.324,0.835,0.568,1.368,0.733c0.533,0.165,1.145,0.247,1.839,0.247
		c1.137,0,2.02-0.178,2.65-0.531c0.298-0.178,0.448-0.363,0.448-0.557c0-0.322-0.214-0.588-0.641-0.798
		c-0.428-0.21-1.312-0.387-2.651-0.533c-1.991-0.209-3.323-0.612-3.992-1.209c-0.669-0.589-1.003-1.315-1.003-2.178
		c0-0.887,0.375-1.625,1.124-2.214c1.017-0.806,2.348-1.209,3.992-1.209c0.573,0,1.123,0.054,1.652,0.163
		c0.529,0.109,1.034,0.276,1.518,0.502c0.153-0.113,0.296-0.197,0.43-0.254c0.133-0.057,0.256-0.086,0.369-0.086
		c0.338,0,0.621,0.128,0.847,0.382c0.225,0.254,0.338,0.679,0.338,1.276v0.605c0,0.541-0.064,0.907-0.193,1.101
		c-0.259,0.371-0.609,0.556-1.052,0.556c-0.299,0-0.561-0.092-0.787-0.279C873.525,226.082,873.381,225.837,873.316,225.53"/>
	<path style="fill:#E7531B;" d="M887.398,232.365c0,0.468-0.165,0.858-0.496,1.174c-0.332,0.314-0.787,0.472-1.368,0.472
		s-1.037-0.158-1.367-0.472c-0.332-0.315-0.497-0.705-0.497-1.174c0-0.468,0.165-0.859,0.497-1.173
		c0.33-0.314,0.786-0.472,1.367-0.472s1.036,0.158,1.368,0.472C887.233,231.506,887.398,231.897,887.398,232.365"/>
</g>
</svg>
