<?xml version="1.0" encoding="utf-8"?>
<!-- Generator: Adobe Illustrator 23.1.0, SVG Export Plug-In . SVG Version: 6.00 Build 0)  -->
<svg version="1.1" id="Layer_1" opacity="0.4" xmlns="http://www.w3.org/2000/svg" xmlns:xlink="http://www.w3.org/1999/xlink"
	 x="0px" y="0px" viewBox="0 0 288 288" style="enable-background:new 0 0 288 288;" xml:space="preserve">
<style type="text/css">
	.st0{fill:#FFFFFF;}
</style>
<path class="st0" d="M220.8,12.9c-14.6-8.6-30.5-12.7-46-12.7c-27.3,0-53,12.7-67.3,36.1c-0.3,0.4-0.5,0.8-0.8,1.2
	c-11.1,18.9-13.1,42.2-5.5,63.9l0.2,0.6c0.3,0.8,0.6,1.6,0.9,2.4c0.3,0.7,0.5,1.3,0.8,2l7,17.8l-19,2.6c-1.2,0.1-2.5,0.3-4,0.5
	l-0.5,0.1c-23,3.8-42.6,17-53.8,36.1c-0.2,0.4-0.5,0.8-0.7,1.2c-20.9,37.4-5.5,86.6,34.9,110.2c40.4,23.7,90.9,13.2,113.3-23.4
	c0.3-0.4,0.5-0.8,0.7-1.2c11.2-19.1,13.1-42.7,5.2-64.7l-0.1-0.2c-0.4-1-0.8-2.1-1.3-3.3l-0.6-1.9l-0.4-0.5l-6.3-16l-18.2-46.2
	l-1.9-4.8l-1-2.6l-6.2-15.7l0-0.2l-0.8-2.1l-0.7-1.7l-0.1-0.3l-0.3-0.7c-3.2-9-2.4-18.6,2.2-26.4c0.2-0.4,0.5-0.8,0.8-1.2
	c0.2-0.5,0.5-0.9,0.7-1.3c9.4-16,30.6-21,47.3-11.2c16.7,9.8,22.7,30.7,13.3,46.7c-0.3,0.4-0.5,0.8-0.8,1.3
	c-0.2,0.4-0.5,0.8-0.7,1.3c-4.6,7.8-12.6,13.2-22,14.8l-0.6,0.1c-0.4,0.1-0.8,0.1-1.1,0.1l-0.3,0l-14.2,1.9l1.9,5.2l3.4,9.1l12.6-2
	l0.1,0c0.9-0.1,1.8-0.3,2.7-0.4l0.1,0l0.1,0c14-2.6,26-11,33-23c13.8-23.5,5-54.4-19.6-68.8c-24.6-14.4-55.8-7-69.6,16.5
	c-7,12-8.4,26.6-3.9,40l0,0.1l0,0.1c0.1,0.4,0.3,0.9,0.5,1.3c0.2,0.4,0.3,0.9,0.5,1.3l0.2,0.6v0l6.7,18l1,2.7l16.1,43.2l4.4,11.8
	l5.8,15.7c0,0,0,0,0,0.1c0.4,1,0.8,2.2,1.3,3.4l0,0.1c6.1,18.2,4.2,37.8-5.2,53.8c-18.4,31.5-60.3,41.4-93.3,22.1
	c-33-19.3-44.8-60.7-26.3-92.2c9.4-16.1,25.6-27.3,44.4-30.8l0.3,0c1.3-0.2,2.5-0.4,3.5-0.5l9.7-1.5l12-1.9l2.1,5.4l-2.8,0.4
	l-9.3,1.4l-10.4,1.6l-0.1,0c-1,0.1-2.1,0.3-3.3,0.5l-0.3,0c-17.2,3.2-32,13.5-40.6,28.2c-16.9,28.8-6.1,66.7,24.1,84.4
	c30.2,17.7,68.5,8.6,85.4-20.2c8.6-14.7,10.4-32.6,4.7-49.3l0-0.1c-0.4-1.2-0.8-2.2-1.2-3.2l-0.4-1.1l-5.4-14.6l-4.8-12.9l-2.9-7.8
	l-2.3-6.3l-2-5.5l-1.5-4.2l-1.8-4.7l-5.4-14.5l-0.7-1.8l-6.8-18.3l0,0l-0.1-0.2c-0.2-0.5-0.4-1-0.6-1.4c-0.2-0.6-0.4-1.1-0.6-1.7
	l0-0.1c-5.1-15-3.5-31.3,4.3-44.6c15.3-26.2,50.1-34.4,77.5-18.3c27.4,16,37.2,50.4,21.9,76.6c-7.8,13.3-21.2,22.6-36.8,25.6l-0.2,0
	c-1.1,0.2-2.2,0.4-3.2,0.5l-11.6,1.8l2,5.4l10.2-1.6l0.3,0c1.2-0.1,2.3-0.3,3.6-0.6l0.2,0c17.1-3.2,31.9-13.5,40.5-28.2
	c16.9-28.8,6.1-66.7-24.1-84.4c-10.5-6.1-21.9-9-33-9c-21.1,0-41.3,10.4-52.3,29.3c-8.6,14.7-10.3,32.6-4.8,49.1l0,0.1
	c0.2,0.6,0.4,1.2,0.7,1.8c0.2,0.5,0.4,1,0.6,1.5l6.8,18.4l0.3,0.9l7.1,19l1.7,4.5l2,5.5l2.6,7l2.5,6.8l5.2,13.9l5.1,13.7l0.8,2.1
	l0.1,0.3c0.4,0.9,0.7,1.8,1.1,3l0,0.1c5.1,15.1,3.5,31.3-4.3,44.7c-15.3,26.2-50.1,34.4-77.5,18.3c-27.4-16-37.2-50.4-21.9-76.6
	c7.8-13.3,21.3-22.7,36.8-25.6l0.2-0.1c1.1-0.2,2.1-0.4,3.1-0.5l11.6-1.8l8.5-1.3l3.7-0.6l2.1,5.4l-12.3,1.9L97,160l-0.1,0
	c-0.7,0.1-1.6,0.2-2.6,0.4l-0.3,0.1c-14,2.6-26,11-33.1,23c-13.8,23.5-5,54.4,19.6,68.8c24.6,14.4,55.8,7,69.6-16.5
	c7-12,8.4-26.6,3.9-40.1l0-0.2c-0.3-1-0.7-1.8-1-2.6l-0.1-0.2l-0.2-0.5l-1.2-3.2l-4.7-12.5l-2.1-5.6l-3.5-9.4l-15.8-42.5l-6.8-18.3
	c-0.2-0.6-0.5-1.1-0.7-1.7c-0.2-0.6-0.5-1.3-0.7-2l-0.1-0.2c-6-18-4.1-37.5,5.3-53.5c18.5-31.5,60.3-41.4,93.3-22.1
	c33,19.3,44.8,60.7,26.3,92.2c-9.4,16-25.4,27.2-44.1,30.7l-0.3,0.1c-1.4,0.3-2.7,0.5-3.9,0.6l-0.3,0l-9.3,1.5h0l3.4,9.1l2.5,6.6
	l6.2-0.9c1.6-0.2,3.2-0.4,4.8-0.6l0.5-0.1c22.7-3.9,42.1-17.1,53.3-36c0.2-0.4,0.5-0.8,0.7-1.2C276.7,85.8,261.2,36.6,220.8,12.9z
	 M128.5,170.5l3.8,9.8l6,15.2l0.3,0.8l0.2,0.5c0.2,0.5,0.4,0.9,0.5,1.4l0.2,0.4l0.1,0.2c3.1,8.9,2.3,18.4-2.3,26.1
	c-0.3,0.4-0.5,0.8-0.8,1.2c-0.2,0.5-0.5,0.9-0.7,1.3c-6.1,10.4-17.3,16.2-29,16.2c-6.2,0-12.5-1.6-18.3-5
	c-16.7-9.8-22.7-30.8-13.3-46.7c0.3-0.4,0.5-0.9,0.8-1.3c0.2-0.4,0.5-0.8,0.7-1.3c4.6-7.8,12.6-13.2,22-14.8l0.3,0
	c0.7-0.1,1.1-0.2,1.3-0.2l0.7-0.1l12.8-1.7l6.8-0.9L128.5,170.5z"/>
<path class="st0" d="M237.2,110.5c-8.6,14.7-23.3,24.9-40.5,28.2l-0.2,0c-1.3,0.2-2.4,0.4-3.6,0.6l-0.3,0l-10.2,1.6l-2-5.4l11.6-1.8
	c1-0.1,2.1-0.3,3.2-0.5l0.2,0c15.6-2.9,29-12.3,36.8-25.6c15.3-26.2,5.5-60.5-21.9-76.6c-27.4-16.1-62.2-7.8-77.5,18.3
	c-7.8,13.3-9.4,29.6-4.3,44.6l0,0.1c0.2,0.5,0.4,1.1,0.6,1.7c0.2,0.5,0.4,1,0.6,1.4l0.1,0.2l0,0l6.8,18.3l0.7,1.8l5.4,14.5l1.8,4.7
	l1.5,4.2l2,5.5l2.3,6.3l2.9,7.8l4.8,12.9l5.4,14.6l0.4,1.1c0.4,1,0.8,2,1.2,3.2l0,0.1c5.6,16.6,3.9,34.6-4.7,49.3
	c-16.9,28.8-55.2,37.9-85.4,20.2c-30.2-17.7-41-55.5-24.1-84.4c8.6-14.7,23.4-25,40.6-28.2l0.3,0c1.2-0.2,2.3-0.4,3.3-0.5l0.1,0
	l10.4-1.6l9.3-1.4l2.8-0.4l2.1,5.4l-3.7,0.6l-8.5,1.3L96,154.4c-0.9,0.1-1.9,0.3-3.1,0.5l-0.2,0.1c-15.6,2.9-29,12.2-36.8,25.6
	C40.6,206.6,50.4,241,77.8,257c27.4,16.1,62.2,7.8,77.5-18.3c7.8-13.4,9.4-29.6,4.3-44.7l0-0.1c-0.4-1.1-0.8-2.1-1.1-3l-0.1-0.3
	l-0.8-2.1l-5.1-13.7l-5.2-13.9l-2.5-6.8l-2.6-7l-2-5.5l-1.7-4.5l-7.1-19l-0.3-0.9L124.2,99c-0.2-0.5-0.4-1-0.6-1.5
	c-0.2-0.6-0.5-1.2-0.7-1.8l0-0.1c-5.6-16.5-3.8-34.4,4.8-49.1c11-18.9,31.2-29.3,52.3-29.3c11.2,0,22.6,2.9,33,9
	C243.2,43.9,254,81.7,237.2,110.5z"/>
<path class="st0" d="M237.2,110.5c-8.6,14.7-23.3,24.9-40.5,28.2l-0.2,0c-1.3,0.2-2.4,0.4-3.6,0.6l-0.3,0l-10.2,1.6l-2-5.4l11.6-1.8
	c1-0.1,2.1-0.3,3.2-0.5l0.2,0c15.6-2.9,29-12.3,36.8-25.6c15.3-26.2,5.5-60.5-21.9-76.6c-27.4-16.1-62.2-7.8-77.5,18.3
	c-7.8,13.3-9.4,29.6-4.3,44.6l0,0.1c0.2,0.5,0.4,1.1,0.6,1.7c0.2,0.5,0.4,1,0.6,1.4l0.1,0.2l0,0l6.8,18.3l0.7,1.8l5.4,14.5l1.8,4.7
	l1.5,4.2l2,5.5l2.3,6.3l2.9,7.8l4.8,12.9l5.4,14.6l0.4,1.1c0.4,1,0.8,2,1.2,3.2l0,0.1c5.6,16.6,3.9,34.6-4.7,49.3
	c-16.9,28.8-55.2,37.9-85.4,20.2c-30.2-17.7-41-55.5-24.1-84.4c8.6-14.7,23.4-25,40.6-28.2l0.3,0c1.2-0.2,2.3-0.4,3.3-0.5l0.1,0
	l10.4-1.6l9.3-1.4l2.8-0.4l2.1,5.4l-3.7,0.6l-8.5,1.3L96,154.4c-0.9,0.1-1.9,0.3-3.1,0.5l-0.2,0.1c-15.6,2.9-29,12.2-36.8,25.6
	C40.6,206.6,50.4,241,77.8,257c27.4,16.1,62.2,7.8,77.5-18.3c7.8-13.4,9.4-29.6,4.3-44.7l0-0.1c-0.4-1.1-0.8-2.1-1.1-3l-0.1-0.3
	l-0.8-2.1l-5.1-13.7l-5.2-13.9l-2.5-6.8l-2.6-7l-2-5.5l-1.7-4.5l-7.1-19l-0.3-0.9L124.2,99c-0.2-0.5-0.4-1-0.6-1.5
	c-0.2-0.6-0.5-1.2-0.7-1.8l0-0.1c-5.6-16.5-3.8-34.4,4.8-49.1c11-18.9,31.2-29.3,52.3-29.3c11.2,0,22.6,2.9,33,9
	C243.2,43.9,254,81.7,237.2,110.5z"/>
<path class="st0" d="M68.8,108.2c-1.6,3.7-4.3,10.1-5.4,14c-0.5,1.5,0.1,3.1,1.5,3.9c1.6,0.9,3.7,0.4,4.6-1.2l0.2-0.4l0.1-0.4
	c1-3.6,3.5-9.6,5-13.2c0.7-1.7,0-3.7-1.7-4.4c-0.4-0.2-0.9-0.3-1.3-0.3C70.5,106.1,69.3,106.9,68.8,108.2"/>
<path class="st0" d="M85.6,84.3c-3.7,3.6-7,7.5-10,11.8c-1.1,1.5-0.7,3.6,0.8,4.7c0.1,0.1,0.2,0.1,0.2,0.1c1.5,0.9,3.4,0.5,4.5-1
	c2.7-3.9,5.8-7.5,9.2-10.8c1.3-1.3,1.4-3.4,0.1-4.8c-0.7-0.7-1.5-1-2.4-1C87.1,83.3,86.3,83.6,85.6,84.3"/>
<path class="st0" d="M60.1,94.8c-7.2,12.3-11.4,25.6-12.8,39c2.4-1.8,4.9-3.4,7.4-4.9c1.8-10.5,5.4-20.9,11.1-30.7
	c5.7-9.7,13-18,21.3-24.7c0.1-3,0.3-5.9,0.6-8.9C76.8,72.4,67.3,82.5,60.1,94.8"/>
<path class="st0" d="M48.5,88c-10.8,18.4-15.6,38.7-15.1,58.6c2.1-2.5,4.4-4.8,6.8-7c0.7-16.5,5.3-33.1,14.2-48.3
	c8.9-15.2,21.1-27.3,35.2-35.9c0.7-3.2,1.7-6.3,2.8-9.3C74.6,55.5,59.3,69.6,48.5,88"/>
<path class="st0" d="M36.9,81.2c-15.3,26.1-20,55.6-15.3,83.3c0.7-1.5,1.4-2.9,2.2-4.3c0.3-0.5,0.6-1,0.8-1.5
	c0.8-1.3,1.6-2.6,2.4-3.9c-2.2-23.7,2.7-48.2,15.6-70.3c12.9-22,32-38.3,53.7-47.9c0.7-1.4,1.4-2.7,2.2-4c0.3-0.5,0.6-1,0.9-1.5
	c0.8-1.4,1.7-2.7,2.7-4.1C75.6,36.6,52.2,55.1,36.9,81.2"/>
<path class="st0" d="M25.2,74.4C4,110.6,1.3,152.5,14.1,189.3c0.6-4.5,1.6-9,3-13.4C9,143.8,13,108.6,31,77.8
	c18-30.8,46.8-51.5,78.8-60.1c3.1-3.3,6.6-6.4,10.2-9.2C81.7,15.3,46.4,38.3,25.2,74.4"/>
<path class="st0" d="M90.3,103.2c-1.3,1.7-1,4.1,0.7,5.4s4.1,1,5.4-0.7c1.3-1.7,1-4.1-0.7-5.4c-0.7-0.5-1.5-0.8-2.3-0.8
	C92.2,101.7,91,102.2,90.3,103.2"/>
<path class="st0" d="M96.3,115.4c-1.3,1.7-1,4.1,0.7,5.4c1.7,1.3,4.1,1,5.4-0.7c1.3-1.7,1-4.1-0.7-5.4c-0.7-0.5-1.5-0.8-2.3-0.8
	C98.2,113.9,97.1,114.4,96.3,115.4"/>
<path class="st0" d="M81.5,118.5c-0.8,2,0.1,4.2,2.1,5c2,0.8,4.2-0.1,5-2.1c0.8-2-0.1-4.2-2.1-5c-0.5-0.2-1-0.3-1.5-0.3
	C83.6,116.2,82.1,117.1,81.5,118.5"/>
<path class="st0" d="M217.5,166.3c-1.7,5.6-4.1,11.2-7.2,16.5c-3.1,5.3-6.8,10.1-10.9,14.4c0.5,2.8,0.9,5.6,1.1,8.3
	c6-5.5,11.3-11.9,15.6-19.3c4.3-7.4,7.4-15.1,9.2-23C222.7,164.4,220.1,165.4,217.5,166.3"/>
<path class="st0" d="M233.3,159.1c-1.8,10.5-5.4,21-11.2,30.7c-5.7,9.8-13,18.1-21.3,24.7c0,3-0.2,5.9-0.6,8.9
	c11-7.7,20.5-17.9,27.8-30.2c7.2-12.3,11.4-25.6,12.8-39C238.3,156,235.9,157.6,233.3,159.1"/>
<path class="st0" d="M247.9,148.3c-0.7,16.5-5.3,33.1-14.2,48.3c-8.9,15.2-21.1,27.3-35.2,35.9c-0.7,3.2-1.7,6.3-2.8,9.3
	c17.6-9.3,33-23.4,43.8-41.9c10.8-18.4,15.6-38.7,15.1-58.6C252.6,143.8,250.3,146.2,247.9,148.3"/>
<path class="st0" d="M264.2,127.8c-0.3,0.5-0.5,1-0.8,1.5c-0.8,1.3-1.6,2.6-2.4,3.9c2.2,23.7-2.7,48.2-15.6,70.3
	c-12.9,22-31.9,38.3-53.7,47.9c-0.7,1.4-1.4,2.7-2.2,4c-0.3,0.5-0.6,1-0.9,1.5c-0.9,1.4-1.8,2.8-2.7,4.1
	c26.5-9.5,49.9-27.9,65.3-54.1c15.3-26.1,20-55.6,15.3-83.4C265.7,124.9,265,126.4,264.2,127.8"/>
<path class="st0" d="M270.9,112.1c8.1,32.1,4.1,67.3-14,98.1c-18,30.8-46.8,51.5-78.8,60.1c-3.2,3.3-6.6,6.4-10.2,9.2
	c38.4-6.8,73.6-29.7,94.8-65.9c21.2-36.2,24-78.1,11.2-114.9C273.3,103.3,272.3,107.8,270.9,112.1"/>
<path class="st0" d="M191.6,180.1c-1.3,1.7-1,4.1,0.7,5.4c1.7,1.3,4.1,1,5.4-0.7c1.3-1.7,1-4.1-0.7-5.4c-0.7-0.5-1.5-0.8-2.3-0.8
	C193.5,178.6,192.4,179.1,191.6,180.1"/>
<path class="st0" d="M199.4,166.6c-0.8,2,0.1,4.2,2.1,5c2,0.8,4.2-0.1,5-2.1c0.8-2-0.1-4.2-2.1-5c-0.5-0.2-1-0.3-1.5-0.3
	C201.4,164.2,200,165.1,199.4,166.6"/>
</svg>
