<?xml version="1.0" encoding="iso-8859-1"?>
<!-- Generator: Adobe Illustrator 23.1.0, SVG Export Plug-In . SVG Version: 6.00 Build 0)  -->
<svg version="1.1" id="Layer_1" xmlns="http://www.w3.org/2000/svg" xmlns:xlink="http://www.w3.org/1999/xlink" x="0px" y="0px"
	 viewBox="0 0 288 288" style="enable-background:new 0 0 288 288;" xml:space="preserve">
<g>
	<g>
		<defs>
			<path id="SVGID_1_" d="M89.039,238.783c-16.713-9.789-22.703-30.752-13.337-46.723c0.25-0.433,0.51-0.866,0.789-1.279
				c0.22-0.424,0.451-0.847,0.691-1.251c4.587-7.827,12.597-13.221,21.973-14.779l0.279-0.049c0.74-0.125,1.125-0.154,1.26-0.173
				l0.644-0.067l12.789-1.731l6.827-0.933l7.981-1.087l3.856,9.78l5.972,15.174l0.308,0.808l0.24,0.519
				c0.221,0.51,0.385,0.923,0.548,1.395l0.155,0.422l0.066,0.173c3.077,8.856,2.25,18.358-2.269,26.079
				c-0.25,0.414-0.5,0.817-0.76,1.212c-0.231,0.452-0.471,0.885-0.731,1.317c-6.116,10.441-17.3,16.202-28.98,16.203
				C101.153,243.793,94.827,242.176,89.039,238.783 M108.021,36.586c-0.26,0.395-0.51,0.818-0.75,1.231
				c-11.097,18.944-13.087,42.234-5.472,63.918l0.212,0.644c0.298,0.827,0.606,1.644,0.923,2.414c0.25,0.673,0.51,1.317,0.789,1.953
				l7.01,17.769l-19.03,2.577c-1.212,0.125-2.51,0.308-4.01,0.548l-0.519,0.077c-22.963,3.846-42.561,17.021-53.773,36.147
				c-0.24,0.414-0.481,0.817-0.712,1.24c-20.944,37.387-5.491,86.554,34.916,110.238c40.416,23.685,90.872,13.145,113.248-23.405
				c0.26-0.394,0.5-0.808,0.74-1.221c11.212-19.136,13.117-42.714,5.212-64.696l-0.077-0.193c-0.375-1.028-0.788-2.096-1.278-3.318
				l-0.597-1.933l-0.394-0.519l-6.308-16.029l-18.213-46.187l-1.904-4.847l-1.029-2.558l-6.173-15.693l-0.03-0.183l-0.856-2.067
				l-0.702-1.702l-0.087-0.249l-0.26-0.703c-3.202-8.953-2.414-18.559,2.164-26.366c0.24-0.414,0.49-0.818,0.75-1.212
				c0.231-0.452,0.481-0.886,0.731-1.318c9.356-15.972,30.57-20.992,47.282-11.193c16.722,9.789,22.703,30.753,13.347,46.724
				c-0.26,0.433-0.519,0.856-0.798,1.279c-0.221,0.423-0.452,0.838-0.692,1.25c-4.568,7.808-12.568,13.194-22.021,14.78
				l-0.596,0.106c-0.394,0.058-0.75,0.106-1.087,0.144l-0.298,0.019l-14.232,1.933l1.942,5.203l3.375,9.087l2.029,5.452l2.029,5.442
				l2.02,5.463l3.384,9.087l2.452,6.596l6.222-0.856c1.615-0.163,3.183-0.374,4.808-0.654l0.51-0.096
				c22.732-3.943,42.128-17.078,53.254-36.041c0.24-0.413,0.481-0.827,0.702-1.24c20.944-37.386,5.491-86.564-34.916-110.238
				c-14.615-8.566-30.552-12.656-45.994-12.657C148.016,0.532,122.298,13.263,108.021,36.586"/>
		</defs>
		<clipPath id="SVGID_2_">
			<use xlink:href="#SVGID_1_"  style="overflow:visible;"/>
		</clipPath>
		
			<linearGradient id="SVGID_3_" gradientUnits="userSpaceOnUse" x1="-816.5179" y1="683.1274" x2="-815.5563" y2="683.1274" gradientTransform="matrix(-154.1174 -90.3255 -90.3255 154.1174 -63919.2578 -178842.1719)">
			<stop  offset="0" style="stop-color:#872F22"/>
			<stop  offset="0.5056" style="stop-color:#F6651C"/>
			<stop  offset="1" style="stop-color:#FAB223"/>
		</linearGradient>
		<polygon style="clip-path:url(#SVGID_2_);fill:url(#SVGID_3_);" points="209.271,414.795 -118.47,222.711 79.594,-115.234 
			407.335,76.849 		"/>
	</g>
	<g>
		<defs>
			<path id="SVGID_4_" d="M114.657,38.731c-10.656,18.184-12.877,40.339-6.088,60.812l0.067,0.25l0.077,0.231
				c0.269,0.779,0.538,1.558,0.817,2.279c0.24,0.664,0.481,1.279,0.731,1.885l4.866,13.078l2.577,6.914l2.096,5.654l12.847,34.531
				l5.731,15.366l0.769,2.077l5.029,13.52l0.24,0.664l0.173,0.413c0.24,0.597,0.471,1.192,0.702,1.905l0.058,0.182l0.067,0.164
				c3.635,10.913,2.472,22.703-3.202,32.386c-11.174,19.078-36.512,25.079-56.475,13.376
				c-19.973-11.703-27.117-36.743-15.934-55.811c5.702-9.732,15.472-16.52,26.829-18.646l0.231-0.047
				c0.808-0.145,1.434-0.241,1.885-0.289l0.413-0.048l12.828-1.991l7.789-1.211l6.135-0.962l-3.548-9.059l-2.115-5.433l-2.135-5.443
				l-2.125-5.443l-3.548-9.057l-0.308,0.047l-19.482,3.029c-1.212,0.144-2.471,0.346-3.856,0.596l-0.394,0.067
				c-21.415,4.01-39.858,16.818-50.6,35.137c-21.05,35.926-7.587,83.092,30.021,105.132c37.599,22.04,85.333,10.741,106.382-25.183
				c10.741-18.329,12.895-40.706,5.895-61.428l-0.029-0.077c-0.385-1.135-0.808-2.288-1.288-3.509l-0.328-1.145l-0.221-0.298
				l-25.847-69.457l-1.001-2.643l-6.241-16.79l-0.01-0.126l-0.538-1.355l-0.683-1.77c-0.067-0.183-0.144-0.365-0.202-0.566
				l-0.019-0.068l-0.212-0.606c-3.673-10.933-2.529-22.77,3.164-32.482c11.183-19.07,36.512-25.07,56.485-13.367
				c19.963,11.703,27.108,36.733,15.934,55.812c-5.693,9.712-15.463,16.491-26.8,18.626l-0.567,0.116l-0.077,0.019
				c-0.606,0.095-1.125,0.173-1.615,0.239l-0.24,0.02l-14.376,2.24l3.375,9.087l2.029,5.452l2.029,5.442l2.02,5.463l3.384,9.087
				l7.702-1.202c1.491-0.183,2.981-0.414,4.548-0.702l0.404-0.087c21.232-4.097,39.522-16.867,50.176-35.05
				c21.059-35.926,7.587-83.093-30.012-105.133c-13.02-7.629-27.255-11.264-41.174-11.264
				C153.586,2.281,128.419,15.243,114.657,38.731"/>
		</defs>
		<clipPath id="SVGID_5_">
			<use xlink:href="#SVGID_4_"  style="overflow:visible;"/>
		</clipPath>
		
			<linearGradient id="SVGID_6_" gradientUnits="userSpaceOnUse" x1="-816.6476" y1="683.053" x2="-815.686" y2="683.053" gradientTransform="matrix(-142.1081 -83.287 -83.287 142.1081 -58951.4492 -164894.6719)">
			<stop  offset="0" style="stop-color:#C44422"/>
			<stop  offset="1" style="stop-color:#F27B15"/>
		</linearGradient>
		<polygon style="clip-path:url(#SVGID_5_);fill:url(#SVGID_6_);" points="206.83,408.427 -111.824,221.669 82.044,-109.118 
			400.698,77.639 		"/>
	</g>
	<g>
		<path style="fill:#FFFFFF;" d="M165.793,244.864c-18.457,31.493-60.292,41.396-93.256,22.076
			c-32.965-19.32-44.767-60.658-26.309-92.151c9.41-16.056,25.583-27.284,44.351-30.798l0.288-0.047
			c1.318-0.243,2.461-0.416,3.506-0.539l9.647-1.5l11.975-1.866l4.257,10.882l2.119,5.435l-12.263,1.913l-12.642,1.961l-0.122,0.014
			c-0.736,0.078-1.581,0.209-2.608,0.396l-0.292,0.055c-13.985,2.612-26.031,10.984-33.06,22.978
			c-13.776,23.505-4.964,54.369,19.64,68.789c24.604,14.419,55.838,7.025,69.614-16.48c7.029-11.993,8.441-26.62,3.877-40.124
			l-0.058-0.153c-0.333-0.994-0.644-1.815-0.955-2.559l-0.069-0.17l-0.168-0.466l-1.173-3.151l-4.658-12.533l-2.082-5.597
			l-3.501-9.39l-15.792-42.445l-6.809-18.299c-0.237-0.561-0.452-1.119-0.659-1.694c-0.242-0.628-0.49-1.324-0.721-2.012
			l-0.064-0.22c-6.026-18.014-4.104-37.507,5.269-53.499c18.458-31.493,60.292-41.396,93.256-22.076
			c32.965,19.321,44.767,60.659,26.31,92.152c-9.358,15.967-25.414,27.167-44.068,30.738l-0.284,0.061
			c-1.438,0.27-2.728,0.465-3.92,0.609l-0.244,0.031l-9.276,1.447l-2.028-5.457l-2.024-5.445l-2.033-5.449l12.586-1.961l0.095-0.009
			c0.914-0.113,1.8-0.253,2.721-0.415l0.149-0.042l0.139-0.027c13.973-2.628,26.019-11.002,33.029-22.963
			c13.776-23.505,4.964-54.369-19.64-68.789c-24.604-14.419-55.837-7.026-69.613,16.479c-7.011,11.962-8.43,26.563-3.895,40.038
			l0.045,0.135l0.025,0.113c0.152,0.435,0.312,0.896,0.481,1.34c0.169,0.445,0.343,0.882,0.509,1.315l0.228,0.576l0.002,0.035
			l6.718,18.05l1.001,2.673l16.061,43.164l4.387,11.779l5.836,15.676c0.012,0.018,0.011,0.038,0.023,0.057
			c0.417,1.044,0.843,2.169,1.264,3.421l0.042,0.121C177.092,209.197,175.203,228.808,165.793,244.864"/>
	</g>
	<g>
		<defs>
			<path id="SVGID_7_" d="M128.128,46.626c-8.606,14.675-10.347,32.579-4.789,49.09l0.029,0.126c0.202,0.615,0.433,1.23,0.664,1.836
				c0.192,0.529,0.385,1.039,0.606,1.558l6.847,18.406l0.337,0.893l7.058,18.992l1.664,4.462l2.029,5.452l2.596,6.982l2.529,6.798
				l5.173,13.857l5.077,13.664l0.769,2.077l0.125,0.356c0.365,0.875,0.731,1.827,1.115,2.962l0.048,0.135
				c5.087,15.049,3.5,31.329-4.318,44.676c-15.338,26.166-50.1,34.397-77.496,18.338c-27.386-16.048-37.195-50.406-21.857-76.573
				c7.818-13.347,21.251-22.675,36.81-25.579l0.24-0.048c1.144-0.212,2.144-0.365,3.077-0.471l11.616-1.808l8.481-1.317l3.693-0.567
				l-2.135-5.443l-2.769,0.433l-9.299,1.442l-10.433,1.626l-0.135,0.018c-1.048,0.125-2.154,0.298-3.346,0.51l-0.25,0.048
				c-17.193,3.222-31.993,13.491-40.609,28.194c-16.895,28.829-6.087,66.679,24.088,84.362
				c30.175,17.684,68.476,8.627,85.371-20.213c8.626-14.703,10.357-32.627,4.741-49.263l-0.048-0.134
				c-0.404-1.184-0.798-2.232-1.202-3.222l-0.433-1.154l-5.433-14.607l-4.808-12.914l-2.885-7.751l-2.346-6.307l-2.029-5.462
				l-1.558-4.184l-1.75-4.702l-5.404-14.511l-0.664-1.788l-6.799-18.261l-0.01-0.03l-0.087-0.231
				c-0.192-0.481-0.385-0.962-0.567-1.442c-0.202-0.558-0.404-1.115-0.587-1.653l-0.029-0.116
				c-5.048-15.011-3.462-31.262,4.337-44.58c15.338-26.165,50.11-34.397,77.496-18.338c27.386,16.049,37.204,50.407,21.867,76.573
				c-7.808,13.309-21.213,22.637-36.772,25.57l-0.163,0.038c-1.144,0.213-2.202,0.375-3.221,0.5l-11.587,1.799l2.029,5.442
				l10.222-1.587l0.346-0.047c1.154-0.136,2.327-0.328,3.587-0.559l0.154-0.038c17.136-3.242,31.868-13.511,40.455-28.157
				c16.895-28.829,6.087-66.678-24.088-84.361c-10.448-6.127-21.872-9.045-33.043-9.045
				C159.366,17.377,139.173,27.779,128.128,46.626"/>
		</defs>
		<clipPath id="SVGID_8_">
			<use xlink:href="#SVGID_7_"  style="overflow:visible;"/>
		</clipPath>
		
			<linearGradient id="SVGID_9_" gradientUnits="userSpaceOnUse" x1="-816.5619" y1="683.0917" x2="-815.6003" y2="683.0917" gradientTransform="matrix(-149.9201 -87.8655 -87.8655 149.9201 -62187.0156 -173969.8438)">
			<stop  offset="0" style="stop-color:#C44422"/>
			<stop  offset="1" style="stop-color:#F27B15"/>
		</linearGradient>
		<polygon style="clip-path:url(#SVGID_8_);fill:url(#SVGID_9_);" points="198.209,375.812 -81.049,212.144 90.655,-80.826 
			369.914,82.843 		"/>
	</g>
	<g>
		<polygon style="fill:#BE3012;" points="128.937,170.707 120.954,171.8 119.777,166.377 117.766,157.071 114.15,140.329 
			112.137,131.023 110.736,124.517 		"/>
	</g>
	<g>
		<defs>
			<path id="SVGID_10_" d="M69.192,108.397c-1.64,3.738-4.298,10.058-5.366,13.964c-0.462,1.462,0.125,3.106,1.51,3.923
				c1.606,0.933,3.673,0.394,4.606-1.212l0.232-0.385l0.114-0.433c0.979-3.606,3.48-9.571,5.043-13.185
				c0.734-1.696-0.043-3.665-1.739-4.401c-0.435-0.188-0.888-0.279-1.334-0.278C70.97,106.392,69.742,107.14,69.192,108.397"/>
		</defs>
		<clipPath id="SVGID_11_">
			<use xlink:href="#SVGID_10_"  style="overflow:visible;"/>
		</clipPath>
		
			<linearGradient id="SVGID_12_" gradientUnits="userSpaceOnUse" x1="-812.1925" y1="683.986" x2="-811.2309" y2="683.986" gradientTransform="matrix(115.4321 0 0 -115.4321 93748.3984 79070.7578)">
			<stop  offset="0" style="stop-color:#F7BD35"/>
			<stop  offset="1" style="stop-color:#F68311"/>
		</linearGradient>
		<rect x="63.364" y="106.391" style="clip-path:url(#SVGID_11_);fill:url(#SVGID_12_);" width="12.7" height="20.827"/>
	</g>
	<g>
		<defs>
			<path id="SVGID_13_" d="M86.055,84.526c-3.663,3.583-7.02,7.538-9.975,11.758c-1.066,1.522-0.697,3.621,0.825,4.688
				c0.077,0.053,0.154,0.103,0.233,0.149c1.497,0.878,3.443,0.472,4.455-0.974c2.717-3.88,5.802-7.517,9.169-10.807
				c1.328-1.3,1.351-3.431,0.052-4.76c-0.659-0.674-1.533-1.012-2.407-1.012C87.559,83.569,86.71,83.887,86.055,84.526"/>
		</defs>
		<clipPath id="SVGID_14_">
			<use xlink:href="#SVGID_13_"  style="overflow:visible;"/>
		</clipPath>
		
			<linearGradient id="SVGID_15_" gradientUnits="userSpaceOnUse" x1="-811.9349" y1="685.7495" x2="-810.9733" y2="685.7495" gradientTransform="matrix(78.8354 46.204 46.204 -78.8354 32357.4609 91638.9063)">
			<stop  offset="0" style="stop-color:#F7BD35"/>
			<stop  offset="1" style="stop-color:#F68311"/>
		</linearGradient>
		<polygon style="clip-path:url(#SVGID_14_);fill:url(#SVGID_15_);" points="79.386,76.109 100.154,88.281 87.742,109.459 
			66.974,97.287 		"/>
	</g>
	<g>
		<defs>
			<path id="SVGID_16_" d="M60.515,95.084c-7.22,12.319-11.414,25.599-12.791,38.958c2.389-1.754,4.872-3.386,7.45-4.873
				c1.762-10.537,5.436-20.934,11.149-30.682c5.713-9.748,12.989-18.034,21.321-24.721c0.052-2.979,0.255-5.948,0.617-8.889
				C77.278,72.606,67.741,82.756,60.515,95.084"/>
		</defs>
		<clipPath id="SVGID_17_">
			<use xlink:href="#SVGID_16_"  style="overflow:visible;"/>
		</clipPath>
		
			<linearGradient id="SVGID_18_" gradientUnits="userSpaceOnUse" x1="-811.9349" y1="685.7578" x2="-810.9733" y2="685.7578" gradientTransform="matrix(78.8354 46.204 46.204 -78.8354 32350.1816 91651.3203)">
			<stop  offset="0" style="stop-color:#F7BD35"/>
			<stop  offset="1" style="stop-color:#F68311"/>
		</linearGradient>
		<polygon style="clip-path:url(#SVGID_17_);fill:url(#SVGID_18_);" points="58.088,47.193 118.433,82.561 77.896,151.726 
			17.551,116.359 		"/>
	</g>
	<g>
		<defs>
			<path id="SVGID_19_" d="M48.9,88.277c-10.799,18.426-15.649,38.721-15.144,58.645c2.112-2.463,4.379-4.79,6.779-6.983
				c0.658-16.49,5.26-33.052,14.173-48.259c8.913-15.207,21.109-27.307,35.179-35.948c0.736-3.157,1.666-6.268,2.783-9.314
				C75.036,55.7,59.695,69.859,48.9,88.277"/>
		</defs>
		<clipPath id="SVGID_20_">
			<use xlink:href="#SVGID_19_"  style="overflow:visible;"/>
		</clipPath>
		
			<linearGradient id="SVGID_21_" gradientUnits="userSpaceOnUse" x1="-811.9349" y1="685.7564" x2="-810.9733" y2="685.7564" gradientTransform="matrix(78.8354 46.204 46.204 -78.8354 32350.1777 91651.3359)">
			<stop  offset="0" style="stop-color:#F7BD35"/>
			<stop  offset="1" style="stop-color:#F68311"/>
		</linearGradient>
		<polygon style="clip-path:url(#SVGID_20_);fill:url(#SVGID_21_);" points="48.443,20.497 136.514,72.114 77.478,172.843 
			-10.593,121.226 		"/>
	</g>
	<g>
		<defs>
			<path id="SVGID_22_" d="M37.286,81.469c-15.311,26.124-19.967,55.596-15.275,83.346c0.7-1.462,1.446-2.908,2.243-4.325
				c0.275-0.507,0.563-0.996,0.849-1.487c0.773-1.318,1.574-2.61,2.417-3.877c-2.242-23.672,2.659-48.219,15.572-70.254
				C56.007,62.838,75.05,46.569,96.796,36.944c0.681-1.351,1.416-2.681,2.184-3.993c0.287-0.489,0.583-0.995,0.887-1.475
				c0.847-1.388,1.739-2.738,2.658-4.06C76.031,36.888,52.597,55.344,37.286,81.469"/>
		</defs>
		<clipPath id="SVGID_23_">
			<use xlink:href="#SVGID_22_"  style="overflow:visible;"/>
		</clipPath>
		
			<linearGradient id="SVGID_24_" gradientUnits="userSpaceOnUse" x1="-811.9349" y1="685.7448" x2="-810.9733" y2="685.7448" gradientTransform="matrix(78.8354 46.204 46.204 -78.8354 32350.1777 91651.3359)">
			<stop  offset="0" style="stop-color:#F7BD35"/>
			<stop  offset="1" style="stop-color:#F68311"/>
		</linearGradient>
		<polygon style="clip-path:url(#SVGID_23_);fill:url(#SVGID_24_);" points="39.103,-9.753 162.463,62.546 80.74,201.985 
			-42.62,129.687 		"/>
	</g>
	<g>
		<defs>
			<path id="SVGID_25_" d="M25.671,74.662C4.478,110.825,1.709,152.784,14.508,189.577c0.626-4.549,1.627-9.034,3.005-13.42
				c-8.076-32.129-4.069-67.321,13.965-98.091c18.035-30.77,46.78-51.462,78.758-60.117c3.148-3.338,6.573-6.402,10.239-9.18
				C82.121,15.58,46.866,38.498,25.671,74.662"/>
		</defs>
		<clipPath id="SVGID_26_">
			<use xlink:href="#SVGID_25_"  style="overflow:visible;"/>
		</clipPath>
		
			<linearGradient id="SVGID_27_" gradientUnits="userSpaceOnUse" x1="-811.9349" y1="685.7224" x2="-810.9733" y2="685.7224" gradientTransform="matrix(78.8354 46.204 46.204 -78.8354 32350.1797 91651.3281)">
			<stop  offset="0" style="stop-color:#F7BD35"/>
			<stop  offset="1" style="stop-color:#F68311"/>
		</linearGradient>
		<polygon style="clip-path:url(#SVGID_26_);fill:url(#SVGID_27_);" points="32.074,-43.042 199.351,54.996 90.111,241.387 
			-77.166,143.349 		"/>
	</g>
	<g>
		<defs>
			<path id="SVGID_28_" d="M90.683,103.478c-1.292,1.686-0.973,4.1,0.713,5.393s4.1,0.974,5.393-0.713
				c1.292-1.686,0.974-4.1-0.713-5.393c-0.697-0.536-1.52-0.794-2.337-0.794C92.584,101.971,91.441,102.49,90.683,103.478"/>
		</defs>
		<clipPath id="SVGID_29_">
			<use xlink:href="#SVGID_28_"  style="overflow:visible;"/>
		</clipPath>
		
			<linearGradient id="SVGID_30_" gradientUnits="userSpaceOnUse" x1="-811.9349" y1="685.7521" x2="-810.9733" y2="685.7521" gradientTransform="matrix(78.8354 46.204 46.204 -78.8354 32354.1426 91644.5625)">
			<stop  offset="0" style="stop-color:#F7BD35"/>
			<stop  offset="1" style="stop-color:#F68311"/>
		</linearGradient>
		<polygon style="clip-path:url(#SVGID_29_);fill:url(#SVGID_30_);" points="91.613,98.18 101.655,104.065 95.859,113.954 
			85.817,108.068 		"/>
	</g>
	<g>
		<defs>
			<path id="SVGID_31_" d="M96.754,115.676c-1.292,1.687-0.973,4.101,0.714,5.393c1.686,1.293,4.099,0.974,5.393-0.712
				c1.291-1.686,0.972-4.1-0.714-5.393c-0.698-0.536-1.521-0.794-2.338-0.794C98.654,114.171,97.512,114.689,96.754,115.676"/>
		</defs>
		<clipPath id="SVGID_32_">
			<use xlink:href="#SVGID_31_"  style="overflow:visible;"/>
		</clipPath>
		
			<linearGradient id="SVGID_33_" gradientUnits="userSpaceOnUse" x1="-811.9349" y1="685.7554" x2="-810.9733" y2="685.7554" gradientTransform="matrix(78.8354 46.204 46.204 -78.8354 32350.2227 91651.2578)">
			<stop  offset="0" style="stop-color:#F7BD35"/>
			<stop  offset="1" style="stop-color:#F68311"/>
		</linearGradient>
		<polygon style="clip-path:url(#SVGID_32_);fill:url(#SVGID_33_);" points="97.683,110.38 107.725,116.265 101.93,126.153 
			91.888,120.268 		"/>
	</g>
	<g>
		<defs>
			<path id="SVGID_34_" d="M81.958,118.78c-0.812,1.963,0.121,4.212,2.084,5.024c1.963,0.813,4.213-0.121,5.024-2.085
				c0.813-1.963-0.121-4.212-2.084-5.023c-0.481-0.199-0.979-0.293-1.468-0.293C84.003,116.403,82.57,117.298,81.958,118.78"/>
		</defs>
		<clipPath id="SVGID_35_">
			<use xlink:href="#SVGID_34_"  style="overflow:visible;"/>
		</clipPath>
		
			<linearGradient id="SVGID_36_" gradientUnits="userSpaceOnUse" x1="-811.9349" y1="685.7593" x2="-810.9733" y2="685.7593" gradientTransform="matrix(78.8354 46.204 46.204 -78.8354 32345.4082 91659.4688)">
			<stop  offset="0" style="stop-color:#F7BD35"/>
			<stop  offset="1" style="stop-color:#F68311"/>
		</linearGradient>
		<polygon style="clip-path:url(#SVGID_35_);fill:url(#SVGID_36_);" points="83.379,112.593 93.462,118.503 87.646,128.426 
			77.563,122.516 		"/>
	</g>
	<g>
		<defs>
			<path id="SVGID_37_" d="M217.904,166.594c-1.716,5.648-4.116,11.186-7.227,16.495c-3.117,5.319-6.776,10.117-10.879,14.378
				c0.505,2.771,0.88,5.554,1.114,8.332c5.981-5.49,11.259-11.948,15.573-19.306c4.312-7.359,7.367-15.12,9.226-23.027
				C223.175,164.636,220.572,165.673,217.904,166.594"/>
		</defs>
		<clipPath id="SVGID_38_">
			<use xlink:href="#SVGID_37_"  style="overflow:visible;"/>
		</clipPath>
		
			<linearGradient id="SVGID_39_" gradientUnits="userSpaceOnUse" x1="-811.5773" y1="686.0161" x2="-810.6157" y2="686.0161" gradientTransform="matrix(68.615 40.214 40.214 -68.615 28294.6641 79882.4453)">
			<stop  offset="0" style="stop-color:#617379"/>
			<stop  offset="1" style="stop-color:#32434C"/>
		</linearGradient>
		<polygon style="clip-path:url(#SVGID_38_);fill:url(#SVGID_39_);" points="206.423,152.163 244.177,174.291 219.085,217.104 
			181.33,194.977 		"/>
	</g>
	<g>
		<defs>
			<path id="SVGID_40_" d="M233.713,159.341c-1.766,10.546-5.447,20.95-11.164,30.707c-5.718,9.756-12.998,18.05-21.335,24.746
				c-0.047,2.97-0.249,5.94-0.621,8.875c10.996-7.731,20.539-17.889,27.763-30.217c7.226-12.329,11.419-25.608,12.793-38.981
				C238.772,156.223,236.29,157.853,233.713,159.341"/>
		</defs>
		<clipPath id="SVGID_41_">
			<use xlink:href="#SVGID_40_"  style="overflow:visible;"/>
		</clipPath>
		
			<linearGradient id="SVGID_42_" gradientUnits="userSpaceOnUse" x1="-811.5773" y1="686.0197" x2="-810.6157" y2="686.0197" gradientTransform="matrix(68.615 40.214 40.214 -68.615 28294.6621 79882.4453)">
			<stop  offset="0" style="stop-color:#617379"/>
			<stop  offset="1" style="stop-color:#32434C"/>
		</linearGradient>
		<polygon style="clip-path:url(#SVGID_41_);fill:url(#SVGID_42_);" points="210.961,136.778 271.335,172.162 230.779,241.361 
			170.405,205.977 		"/>
	</g>
	<g>
		<defs>
			<path id="SVGID_43_" d="M248.327,148.591c-0.654,16.503-5.251,33.057-14.164,48.264c-8.912,15.207-21.109,27.308-35.187,35.942
				c-0.727,3.164-1.659,6.273-2.775,9.32c17.634-9.282,32.975-23.441,43.77-41.859c10.794-18.418,15.644-38.712,15.126-58.634
				C252.985,144.087,250.722,146.406,248.327,148.591"/>
		</defs>
		<clipPath id="SVGID_44_">
			<use xlink:href="#SVGID_43_"  style="overflow:visible;"/>
		</clipPath>
		
			<linearGradient id="SVGID_45_" gradientUnits="userSpaceOnUse" x1="-811.5773" y1="686.0213" x2="-810.6157" y2="686.0213" gradientTransform="matrix(68.615 40.214 40.214 -68.615 28294.6621 79882.4453)">
			<stop  offset="0" style="stop-color:#617379"/>
			<stop  offset="1" style="stop-color:#32434C"/>
		</linearGradient>
		<polygon style="clip-path:url(#SVGID_44_);fill:url(#SVGID_45_);" points="211.391,115.706 299.454,167.317 240.424,268.036 
			152.362,216.424 		"/>
	</g>
	<g>
		<defs>
			<path id="SVGID_46_" d="M264.603,128.048c-0.27,0.499-0.549,0.993-0.836,1.484c-0.773,1.318-1.574,2.61-2.426,3.871
				c2.242,23.674-2.655,48.233-15.564,70.26c-12.91,22.027-31.944,38.3-53.694,47.912c-0.686,1.36-1.42,2.69-2.193,4.009
				c-0.287,0.489-0.582,0.974-0.885,1.454c-0.852,1.395-1.754,2.763-2.687,4.088c26.504-9.468,49.95-27.926,65.266-54.058
				c15.316-26.134,19.964-55.611,15.272-83.36C266.157,125.168,265.405,126.623,264.603,128.048"/>
		</defs>
		<clipPath id="SVGID_47_">
			<use xlink:href="#SVGID_46_"  style="overflow:visible;"/>
		</clipPath>
		
			<linearGradient id="SVGID_48_" gradientUnits="userSpaceOnUse" x1="-811.5773" y1="686.0345" x2="-810.6157" y2="686.0345" gradientTransform="matrix(68.615 40.214 40.214 -68.615 28294.6641 79882.4453)">
			<stop  offset="0" style="stop-color:#617379"/>
			<stop  offset="1" style="stop-color:#32434C"/>
		</linearGradient>
		<polygon style="clip-path:url(#SVGID_47_);fill:url(#SVGID_48_);" points="208.11,86.526 331.496,158.841 249.758,298.305 
			126.372,225.991 		"/>
	</g>
	<g>
		<defs>
			<path id="SVGID_49_" d="M271.353,112.387c8.084,32.134,4.073,67.312-13.961,98.082c-18.034,30.771-46.767,51.459-78.753,60.11
				c-3.153,3.345-6.577,6.41-10.239,9.178c38.356-6.812,73.606-29.72,94.801-65.884c21.194-36.162,23.957-78.113,11.157-114.906
				C273.732,103.516,272.73,108.001,271.353,112.387"/>
		</defs>
		<clipPath id="SVGID_50_">
			<use xlink:href="#SVGID_49_"  style="overflow:visible;"/>
		</clipPath>
		
			<linearGradient id="SVGID_51_" gradientUnits="userSpaceOnUse" x1="-811.5773" y1="686.0603" x2="-810.6157" y2="686.0603" gradientTransform="matrix(68.615 40.214 40.214 -68.615 28294.6641 79882.4453)">
			<stop  offset="0" style="stop-color:#617379"/>
			<stop  offset="1" style="stop-color:#32434C"/>
		</linearGradient>
		<polygon style="clip-path:url(#SVGID_50_);fill:url(#SVGID_51_);" points="198.762,47.16 366.025,145.19 256.794,331.564 
			89.532,233.534 		"/>
	</g>
	<g>
		<defs>
			<path id="SVGID_52_" d="M192.082,180.377c-1.292,1.687-0.973,4.101,0.713,5.393c1.686,1.292,4.1,0.974,5.393-0.712
				c1.292-1.687,0.973-4.1-0.713-5.394c-0.698-0.535-1.52-0.793-2.337-0.793C193.982,178.871,192.84,179.389,192.082,180.377"/>
		</defs>
		<clipPath id="SVGID_53_">
			<use xlink:href="#SVGID_52_"  style="overflow:visible;"/>
		</clipPath>
		
			<linearGradient id="SVGID_54_" gradientUnits="userSpaceOnUse" x1="-811.5773" y1="686.0207" x2="-810.6157" y2="686.0207" gradientTransform="matrix(68.615 40.214 40.214 -68.615 28290.7012 79889.2031)">
			<stop  offset="0" style="stop-color:#617379"/>
			<stop  offset="1" style="stop-color:#32434C"/>
		</linearGradient>
		<polygon style="clip-path:url(#SVGID_53_);fill:url(#SVGID_54_);" points="193.011,175.08 203.053,180.965 197.258,190.853 
			187.216,184.968 		"/>
	</g>
	<g>
		<defs>
			<path id="SVGID_55_" d="M199.804,166.816c-0.812,1.963,0.121,4.212,2.084,5.024c1.963,0.812,4.213-0.121,5.025-2.084
				c0.812-1.964-0.122-4.213-2.085-5.025c-0.481-0.199-0.979-0.293-1.468-0.293C201.85,164.438,200.417,165.333,199.804,166.816"/>
		</defs>
		<clipPath id="SVGID_56_">
			<use xlink:href="#SVGID_55_"  style="overflow:visible;"/>
		</clipPath>
		
			<linearGradient id="SVGID_57_" gradientUnits="userSpaceOnUse" x1="-811.5773" y1="686.0123" x2="-810.6157" y2="686.0123" gradientTransform="matrix(68.615 40.214 40.214 -68.615 28299.4355 79874.3047)">
			<stop  offset="0" style="stop-color:#617379"/>
			<stop  offset="1" style="stop-color:#32434C"/>
		</linearGradient>
		<polygon style="clip-path:url(#SVGID_56_);fill:url(#SVGID_57_);" points="201.225,160.628 211.308,166.538 205.493,176.461 
			195.41,170.551 		"/>
	</g>
</g>
</svg>
